<svg width="48" height="48" viewBox="0 0 48 48" fill="none" xmlns="http://www.w3.org/2000/svg">
<path d="M25.5 25.5C25.5 25.8978 25.342 26.2794 25.0607 26.5607C24.7794 26.842 24.3978 27 24 27C23.6022 27 23.2206 26.842 22.9393 26.5607C22.658 26.2794 22.5 25.8978 22.5 25.5C22.5 25.1022 22.658 24.7206 22.9393 24.4393C23.2206 24.158 23.6022 24 24 24C24.3978 24 24.7794 24.158 25.0607 24.4393C25.342 24.7206 25.5 25.1022 25.5 25.5ZM15 31.5C15.3978 31.5 15.7794 31.342 16.0607 31.0607C16.342 30.7794 16.5 30.3978 16.5 30C16.5 29.6022 16.342 29.2206 16.0607 28.9393C15.7794 28.658 15.3978 28.5 15 28.5C14.6022 28.5 14.2206 28.658 13.9393 28.9393C13.658 29.2206 13.5 29.6022 13.5 30C13.5 30.3978 13.658 30.7794 13.9393 31.0607C14.2206 31.342 14.6022 31.5 15 31.5ZM16.5 34.5C16.5 34.8978 16.342 35.2794 16.0607 35.5607C15.7794 35.842 15.3978 36 15 36C14.6022 36 14.2206 35.842 13.9393 35.5607C13.658 35.2794 13.5 34.8978 13.5 34.5C13.5 34.1022 13.658 33.7206 13.9393 33.4393C14.2206 33.158 14.6022 33 15 33C15.3978 33 15.7794 33.158 16.0607 33.4393C16.342 33.7206 16.5 34.1022 16.5 34.5ZM19.5 31.5C19.8978 31.5 20.2794 31.342 20.5607 31.0607C20.842 30.7794 21 30.3978 21 30C21 29.6022 20.842 29.2206 20.5607 28.9393C20.2794 28.658 19.8978 28.5 19.5 28.5C19.1022 28.5 18.7206 28.658 18.4393 28.9393C18.158 29.2206 18 29.6022 18 30C18 30.3978 18.158 30.7794 18.4393 31.0607C18.7206 31.342 19.1022 31.5 19.5 31.5ZM21 34.5C21 34.8978 20.842 35.2794 20.5607 35.5607C20.2794 35.842 19.8978 36 19.5 36C19.1022 36 18.7206 35.842 18.4393 35.5607C18.158 35.2794 18 34.8978 18 34.5C18 34.1022 18.158 33.7206 18.4393 33.4393C18.7206 33.158 19.1022 33 19.5 33C19.8978 33 20.2794 33.158 20.5607 33.4393C20.842 33.7206 21 34.1022 21 34.5ZM24 31.5C24.3978 31.5 24.7794 31.342 25.0607 31.0607C25.342 30.7794 25.5 30.3978 25.5 30C25.5 29.6022 25.342 29.2206 25.0607 28.9393C24.7794 28.658 24.3978 28.5 24 28.5C23.6022 28.5 23.2206 28.658 22.9393 28.9393C22.658 29.2206 22.5 29.6022 22.5 30C22.5 30.3978 22.658 30.7794 22.9393 31.0607C23.2206 31.342 23.6022 31.5 24 31.5ZM25.5 34.5C25.5 34.8978 25.342 35.2794 25.0607 35.5607C24.7794 35.842 24.3978 36 24 36C23.6022 36 23.2206 35.842 22.9393 35.5607C22.658 35.2794 22.5 34.8978 22.5 34.5C22.5 34.1022 22.658 33.7206 22.9393 33.4393C23.2206 33.158 23.6022 33 24 33C24.3978 33 24.7794 33.158 25.0607 33.4393C25.342 33.7206 25.5 34.1022 25.5 34.5ZM28.5 31.5C28.8978 31.5 29.2794 31.342 29.5607 31.0607C29.842 30.7794 30 30.3978 30 30C30 29.6022 29.842 29.2206 29.5607 28.9393C29.2794 28.658 28.8978 28.5 28.5 28.5C28.1022 28.5 27.7206 28.658 27.4393 28.9393C27.158 29.2206 27 29.6022 27 30C27 30.3978 27.158 30.7794 27.4393 31.0607C27.7206 31.342 28.1022 31.5 28.5 31.5ZM30 34.5C30 34.8978 29.842 35.2794 29.5607 35.5607C29.2794 35.842 28.8978 36 28.5 36C28.1022 36 27.7206 35.842 27.4393 35.5607C27.158 35.2794 27 34.8978 27 34.5C27 34.1022 27.158 33.7206 27.4393 33.4393C27.7206 33.158 28.1022 33 28.5 33C28.8978 33 29.2794 33.158 29.5607 33.4393C29.842 33.7206 30 34.1022 30 34.5ZM33 31.5C33.3978 31.5 33.7794 31.342 34.0607 31.0607C34.342 30.7794 34.5 30.3978 34.5 30C34.5 29.6022 34.342 29.2206 34.0607 28.9393C33.7794 28.658 33.3978 28.5 33 28.5C32.6022 28.5 32.2206 28.658 31.9393 28.9393C31.658 29.2206 31.5 29.6022 31.5 30C31.5 30.3978 31.658 30.7794 31.9393 31.0607C32.2206 31.342 32.6022 31.5 33 31.5ZM30 25.5C30 25.8978 29.842 26.2794 29.5607 26.5607C29.2794 26.842 28.8978 27 28.5 27C28.1022 27 27.7206 26.842 27.4393 26.5607C27.158 26.2794 27 25.8978 27 25.5C27 25.1022 27.158 24.7206 27.4393 24.4393C27.7206 24.158 28.1022 24 28.5 24C28.8978 24 29.2794 24.158 29.5607 24.4393C29.842 24.7206 30 25.1022 30 25.5ZM33 27C33.3978 27 33.7794 26.842 34.0607 26.5607C34.342 26.2794 34.5 25.8978 34.5 25.5C34.5 25.1022 34.342 24.7206 34.0607 24.4393C33.7794 24.158 33.3978 24 33 24C32.6022 24 32.2206 24.158 31.9393 24.4393C31.658 24.7206 31.5 25.1022 31.5 25.5C31.5 25.8978 31.658 26.2794 31.9393 26.5607C32.2206 26.842 32.6022 27 33 27Z" fill="white"/>
<path fill-rule="evenodd" clip-rule="evenodd" d="M13.5 4.5C13.8978 4.5 14.2794 4.65804 14.5607 4.93934C14.842 5.22064 15 5.60218 15 6V9H33V6C33 5.60218 33.158 5.22064 33.4393 4.93934C33.7206 4.65804 34.1022 4.5 34.5 4.5C34.8978 4.5 35.2794 4.65804 35.5607 4.93934C35.842 5.22064 36 5.60218 36 6V9H37.5C39.0913 9 40.6174 9.63214 41.7426 10.7574C42.8679 11.8826 43.5 13.4087 43.5 15V37.5C43.5 39.0913 42.8679 40.6174 41.7426 41.7426C40.6174 42.8679 39.0913 43.5 37.5 43.5H10.5C8.9087 43.5 7.38258 42.8679 6.25736 41.7426C5.13214 40.6174 4.5 39.0913 4.5 37.5V15C4.5 13.4087 5.13214 11.8826 6.25736 10.7574C7.38258 9.63214 8.9087 9 10.5 9H12V6C12 5.60218 12.158 5.22064 12.4393 4.93934C12.7206 4.65804 13.1022 4.5 13.5 4.5ZM40.5 22.5C40.5 21.7044 40.1839 20.9413 39.6213 20.3787C39.0587 19.8161 38.2957 19.5 37.5 19.5H10.5C9.70435 19.5 8.94129 19.8161 8.37868 20.3787C7.81607 20.9413 7.5 21.7044 7.5 22.5V37.5C7.5 38.2957 7.81607 39.0587 8.37868 39.6213C8.94129 40.1839 9.70435 40.5 10.5 40.5H37.5C38.2957 40.5 39.0587 40.1839 39.6213 39.6213C40.1839 39.0587 40.5 38.2957 40.5 37.5V22.5Z" fill="white"/>
</svg>
