<svg width="36" height="36" viewBox="0 0 44 44" fill="none" xmlns="http://www.w3.org/2000/svg">
<path d="M26.0971 34.8334C27.6829 34.8334 28.5208 36.7107 27.4629 37.8913C26.7758 38.6603 25.9338 39.2754 24.9923 39.6963C24.0508 40.1171 23.0309 40.3342 21.9996 40.3334C20.9683 40.3342 19.9485 40.1171 19.0069 39.6963C18.0654 39.2754 17.2235 38.6603 16.5363 37.8913C15.5243 36.762 16.2466 34.9965 17.6986 34.8462L17.9003 34.8352L26.0971 34.8334Z" fill="#141414"/>
<path d="M21.9996 3.66669C24.4892 3.66669 26.5939 5.32219 27.2704 7.59185L27.3547 7.90535L27.3694 7.98419C29.3905 9.12434 31.1127 10.727 32.395 12.661C33.6773 14.595 34.4832 16.8052 34.7467 19.1107L34.7981 19.6369L34.8329 20.1667V25.5402L34.8714 25.7895C35.1224 27.1404 35.87 28.3483 36.9669 29.1757L37.2731 29.3902L37.5701 29.5717C39.1467 30.4645 38.5967 32.8094 36.8789 32.989L36.6662 33H7.33291C5.44824 33 4.79008 30.4994 6.42908 29.5717C7.12763 29.1764 7.7312 28.6329 8.1974 27.9796C8.6636 27.3262 8.98115 26.5787 9.12774 25.7895L9.16624 25.5274L9.16808 20.0824C9.27986 17.6878 9.97687 15.3571 11.1981 13.2944C12.4193 11.2316 14.1276 9.49963 16.1732 8.25002L16.6279 7.98235L16.6462 7.90352C16.9056 6.80723 17.495 5.81689 18.3349 5.06614C19.1748 4.31539 20.2248 3.84037 21.3432 3.70519L21.6769 3.67402L21.9996 3.66669Z" fill="#141414"/>
<path d="M26.0971 34.8334C27.6829 34.8334 28.5208 36.7107 27.4629 37.8913C26.7758 38.6603 25.9338 39.2754 24.9923 39.6963C24.0508 40.1171 23.0309 40.3342 21.9996 40.3334C20.9683 40.3342 19.9485 40.1171 19.0069 39.6963C18.0654 39.2754 17.2235 38.6603 16.5363 37.8913C15.5243 36.762 16.2466 34.9965 17.6986 34.8462L17.9003 34.8352L26.0971 34.8334Z" stroke="#141414"/>
<path d="M21.9996 3.66669C24.4892 3.66669 26.5939 5.32219 27.2704 7.59185L27.3547 7.90535L27.3694 7.98419C29.3905 9.12434 31.1127 10.727 32.395 12.661C33.6773 14.595 34.4832 16.8052 34.7467 19.1107L34.7981 19.6369L34.8329 20.1667V25.5402L34.8714 25.7895C35.1224 27.1404 35.87 28.3483 36.9669 29.1757L37.2731 29.3902L37.5701 29.5717C39.1467 30.4645 38.5967 32.8094 36.8789 32.989L36.6662 33H7.33291C5.44824 33 4.79008 30.4994 6.42908 29.5717C7.12763 29.1764 7.7312 28.6329 8.1974 27.9796C8.6636 27.3262 8.98115 26.5787 9.12774 25.7895L9.16624 25.5274L9.16808 20.0824C9.27986 17.6878 9.97687 15.3571 11.1981 13.2944C12.4193 11.2316 14.1276 9.49963 16.1732 8.25002L16.6279 7.98235L16.6462 7.90352C16.9056 6.80723 17.495 5.81689 18.3349 5.06614C19.1748 4.31539 20.2248 3.84037 21.3432 3.70519L21.6769 3.67402L21.9996 3.66669Z" stroke="#141414"/>
</svg>
