<svg width="20" height="20" viewBox="0 0 20 20" fill="none" xmlns="http://www.w3.org/2000/svg">
<path fill-rule="evenodd" clip-rule="evenodd" d="M7.0654 1.33333C7.13653 1.37447 7.19886 1.42924 7.24881 1.4945C7.29875 1.55976 7.33534 1.63423 7.35647 1.71364C7.3776 1.79306 7.38286 1.87586 7.37195 1.95732C7.36104 2.03877 7.33418 2.11727 7.2929 2.18833C7.12511 2.47852 7.0055 2.794 6.93873 3.12249C6.98706 3.17083 7.03706 3.21749 7.08873 3.26249C7.4399 2.82876 7.88363 2.47906 8.38742 2.23898C8.89122 1.99891 9.44232 1.87454 10.0004 1.87499C11.1779 1.87499 12.2279 2.41749 12.9146 3.26499C12.9646 3.21999 13.0146 3.17333 13.0629 3.12583C12.9963 2.79612 12.8763 2.47948 12.7079 2.18833C12.6667 2.1173 12.64 2.03887 12.6292 1.95751C12.6183 1.87614 12.6236 1.79344 12.6447 1.71413C12.6659 1.63481 12.7024 1.56043 12.7523 1.49524C12.8021 1.43004 12.8644 1.37531 12.9354 1.33416C13.0064 1.29301 13.0849 1.26626 13.1662 1.25542C13.2476 1.24458 13.3303 1.24988 13.4096 1.27101C13.4889 1.29213 13.5633 1.32867 13.6285 1.37854C13.6937 1.42841 13.7484 1.49064 13.7896 1.56166C14.0924 2.08496 14.2829 2.66564 14.3487 3.26666C14.3583 3.35391 14.3493 3.44219 14.3225 3.52576C14.2956 3.60932 14.2515 3.68629 14.1929 3.75166C13.9921 3.97666 13.7721 4.18499 13.5371 4.37583C13.7352 4.93659 13.7969 5.53648 13.7171 6.12583C13.6287 6.78583 13.0896 7.20499 12.5362 7.29499C12.3846 7.31999 12.2329 7.34249 12.0804 7.36249C12.2071 7.55166 12.3079 7.75916 12.3796 7.98083C13.461 7.84845 14.5293 7.6246 15.5729 7.31166C15.519 6.57511 15.423 5.84225 15.2854 5.11666C15.2545 4.95377 15.2895 4.78527 15.3828 4.64821C15.4761 4.51115 15.62 4.41677 15.7829 4.38583C15.9458 4.35488 16.1143 4.38992 16.2513 4.48322C16.3884 4.57652 16.4828 4.72044 16.5137 4.88333C16.6887 5.81249 16.8037 6.76333 16.8504 7.73166C16.8572 7.86858 16.8188 8.00393 16.7411 8.11686C16.6634 8.2298 16.5507 8.31406 16.4204 8.35666C15.1479 8.77249 13.8212 9.06833 12.4537 9.23083C12.3921 9.54749 12.2704 9.84333 12.1012 10.1058C13.8229 10.28 15.4829 10.6658 17.0537 11.2375C17.1803 11.2836 17.2886 11.3693 17.3625 11.4819C17.4363 11.5946 17.4719 11.728 17.4637 11.8625C17.3597 13.6341 17.0266 15.3848 16.4729 17.0708C16.4472 17.1488 16.4064 17.2209 16.3528 17.2831C16.2992 17.3453 16.2338 17.3964 16.1605 17.4333C16.0872 17.4703 16.0073 17.4924 15.9254 17.4985C15.8436 17.5046 15.7613 17.4945 15.6833 17.4687C15.6053 17.443 15.5332 17.4022 15.471 17.3486C15.4088 17.295 15.3578 17.2297 15.3208 17.1564C15.2839 17.083 15.2617 17.0032 15.2557 16.9213C15.2496 16.8394 15.2597 16.7571 15.2854 16.6792C15.7566 15.2455 16.0578 13.7614 16.1829 12.2575C15.7662 12.1167 15.3421 11.9908 14.9129 11.8783C14.9696 12.0733 14.9996 12.2817 14.9996 12.5C14.9996 15.7967 12.8987 18.75 9.99956 18.75C7.10123 18.75 4.99956 15.7967 4.99956 12.5C4.99956 12.2817 5.0304 12.0742 5.08623 11.8783C4.6579 11.9908 4.23456 12.1167 3.8179 12.2575C3.94623 13.7892 4.25123 15.2708 4.7154 16.68C4.74219 16.7583 4.75318 16.8411 4.74772 16.9236C4.74226 17.0062 4.72047 17.0868 4.68361 17.1609C4.64674 17.235 4.59554 17.301 4.53297 17.3551C4.4704 17.4092 4.3977 17.4504 4.3191 17.4762C4.2405 17.502 4.15755 17.512 4.07507 17.5055C3.99259 17.499 3.91222 17.4762 3.83862 17.4384C3.76502 17.4006 3.69966 17.3486 3.64632 17.2854C3.59298 17.2221 3.55273 17.1489 3.5279 17.07C2.97385 15.384 2.64052 13.6333 2.53623 11.8617C2.52834 11.7272 2.56407 11.5939 2.6381 11.4814C2.71212 11.369 2.82049 11.2834 2.94706 11.2375C4.28626 10.7501 5.67266 10.4038 7.08373 10.2042H7.09206C7.35956 10.1658 7.62873 10.1333 7.89956 10.1058C7.727 9.83939 7.60706 9.54238 7.54623 9.23083C6.19831 9.07112 4.86958 8.77802 3.57956 8.35583C3.44927 8.31322 3.33659 8.22897 3.25889 8.11603C3.18119 8.00309 3.14278 7.86774 3.14956 7.73083C3.19706 6.76416 3.31123 5.81249 3.48706 4.88333C3.51801 4.72044 3.61239 4.57652 3.74944 4.48322C3.8865 4.38992 4.05501 4.35488 4.2179 4.38583C4.38078 4.41677 4.52471 4.51115 4.61801 4.64821C4.71131 4.78527 4.74634 4.95377 4.7154 5.11666C4.57873 5.83499 4.48206 6.56666 4.4279 7.31166C5.45873 7.62083 6.5254 7.84666 7.62123 7.98083C7.69206 7.75916 7.79373 7.55166 7.9204 7.36249C7.76813 7.34252 7.61617 7.32029 7.46456 7.29583C6.91123 7.20416 6.37206 6.78583 6.28373 6.12583C6.2051 5.53557 6.26706 4.93509 6.46456 4.37333C6.22927 4.18263 6.00968 3.97335 5.8079 3.74749C5.74921 3.68203 5.705 3.60492 5.67815 3.5212C5.65129 3.43749 5.64241 3.34905 5.65206 3.26166C5.71836 2.66242 5.90849 2.08351 6.2104 1.56166C6.25154 1.49052 6.30631 1.4282 6.37157 1.37825C6.43683 1.3283 6.5113 1.29172 6.59071 1.27059C6.67013 1.24946 6.75293 1.2442 6.83439 1.2551C6.91584 1.26601 6.99434 1.29204 7.0654 1.33333Z" fill="#9650FA"/>
</svg>
