<svg width="36" height="28" viewBox="0 0 36 28" fill="none" xmlns="http://www.w3.org/2000/svg">
<path d="M1.75 20.25L10.3483 11.6517C10.6966 11.3034 11.11 11.0272 11.5649 10.8388C12.0199 10.6503 12.5075 10.5533 13 10.5533C13.4925 10.5533 13.9801 10.6503 14.4351 10.8388C14.89 11.0272 15.3034 11.3034 15.6517 11.6517L24.25 20.25M21.75 17.75L24.0983 15.4017C24.4466 15.0534 24.86 14.7772 25.3149 14.5888C25.7699 14.4003 26.2575 14.3033 26.75 14.3033C27.2425 14.3033 27.7301 14.4003 28.1851 14.5888C28.64 14.7772 29.0534 15.0534 29.4017 15.4017L34.25 20.25M4.25 26.5H31.75C32.413 26.5 33.0489 26.2366 33.5178 25.7678C33.9866 25.2989 34.25 24.663 34.25 24V4C34.25 3.33696 33.9866 2.70107 33.5178 2.23223C33.0489 1.76339 32.413 1.5 31.75 1.5H4.25C3.58696 1.5 2.95107 1.76339 2.48223 2.23223C2.01339 2.70107 1.75 3.33696 1.75 4V24C1.75 24.663 2.01339 25.2989 2.48223 25.7678C2.95107 26.2366 3.58696 26.5 4.25 26.5ZM21.75 7.75H21.7633V7.76333H21.75V7.75ZM22.375 7.75C22.375 7.91576 22.3092 8.07473 22.1919 8.19194C22.0747 8.30915 21.9158 8.375 21.75 8.375C21.5842 8.375 21.4253 8.30915 21.3081 8.19194C21.1908 8.07473 21.125 7.91576 21.125 7.75C21.125 7.58424 21.1908 7.42527 21.3081 7.30806C21.4253 7.19085 21.5842 7.125 21.75 7.125C21.9158 7.125 22.0747 7.19085 22.1919 7.30806C22.3092 7.42527 22.375 7.58424 22.375 7.75Z" stroke="#8C8A8F" stroke-width="2" stroke-linecap="round" stroke-linejoin="round"/>
</svg>
