<svg width="24" height="20" viewBox="0 0 24 20" fill="none" xmlns="http://www.w3.org/2000/svg">
<path d="M16.0234 7.79001H21.0154L17.8344 5.13751C16.8103 4.28407 15.5346 3.67034 14.1356 3.35802C12.7366 3.04569 11.2636 3.04578 9.86464 3.35828C8.4657 3.67078 7.19014 4.28467 6.16617 5.13823C5.14221 5.9918 4.40594 7.05496 4.03138 8.22084M2.98537 16.37V12.21M2.98537 12.21H7.97738M2.98537 12.21L6.16537 14.8625C7.18949 15.7159 8.46517 16.3297 9.86416 16.642C11.2632 16.9543 12.7362 16.9542 14.1351 16.6417C15.534 16.3292 16.8096 15.7154 17.8336 14.8618C18.8575 14.0082 19.5938 12.9451 19.9684 11.7792M21.0154 3.63001V7.78834" stroke="#9650FA" stroke-width="1.5" stroke-linecap="round" stroke-linejoin="round"/>
</svg>
