<svg width="48" height="48" viewBox="0 0 48 48" fill="none" xmlns="http://www.w3.org/2000/svg">
<path d="M21.499 4C18.847 4 16.3036 5.05351 14.4283 6.92877C12.5531 8.80403 11.4996 11.3474 11.4996 13.9994C11.4996 16.6515 12.5531 19.1949 14.4283 21.0701C16.3036 22.9454 18.847 23.9989 21.499 23.9989C24.151 23.9989 26.6944 22.9454 28.5697 21.0701C30.445 19.1949 31.4985 16.6515 31.4985 13.9994C31.4985 11.3474 30.445 8.80403 28.5697 6.92877C26.6944 5.05351 24.151 4 21.499 4ZM9.02222 26.4987C8.36385 26.4961 7.71143 26.6235 7.10239 26.8735C6.49334 27.1236 5.93965 27.4914 5.47307 27.9559C5.00648 28.4204 4.63618 28.9724 4.38339 29.5803C4.13061 30.1882 4.00032 30.8401 4 31.4985C4 35.7257 6.08238 38.9131 9.3372 40.9904C12.542 43.0328 16.8618 43.9978 21.499 43.9978C22.2165 43.9978 22.9264 43.9728 23.6239 43.9278L20.0991 40.4005C19.7506 40.0522 19.4742 39.6388 19.2856 39.1837C19.097 38.7285 19 38.2407 19 37.7481C19 37.2555 19.097 36.7677 19.2856 36.3126C19.4742 35.8575 19.7506 35.444 20.0991 35.0958L25.0988 30.096C25.7005 29.4957 26.4883 29.1175 27.3331 29.0236C28.1779 28.9297 29.0295 29.1256 29.7484 29.5792C30.4672 30.0327 31.0107 30.7171 31.2896 31.52C31.5685 32.3229 31.5663 33.1968 31.2835 33.9983H34.2083C33.9909 33.3837 33.9376 32.723 34.0535 32.0814C34.1694 31.4398 34.4506 30.8396 34.8693 30.3398C35.288 29.8401 35.8298 29.4582 36.4412 29.2318C37.0525 29.0053 37.7124 28.9422 38.3556 29.0486C37.9209 28.2752 37.2882 27.6314 36.5224 27.1833C35.7567 26.7352 34.8855 26.4989 33.9983 26.4987H9.02222ZM28.6336 43.6328C28.5175 43.7492 28.3796 43.8415 28.2277 43.9046C28.0759 43.9676 27.9131 44 27.7487 44C27.5843 44 27.4215 43.9676 27.2696 43.9046C27.1178 43.8415 26.9798 43.7492 26.8637 43.6328L21.864 38.6331C21.7476 38.517 21.6552 38.379 21.5922 38.2272C21.5292 38.0753 21.4968 37.9125 21.4968 37.7481C21.4968 37.5837 21.5292 37.4209 21.5922 37.2691C21.6552 37.1172 21.7476 36.9793 21.864 36.8632L26.8637 31.8634C27.0984 31.6287 27.4168 31.4969 27.7487 31.4969C28.0806 31.4969 28.3989 31.6287 28.6336 31.8634C28.8683 32.0981 29.0002 32.4165 29.0002 32.7484C29.0002 33.0803 28.8683 33.3986 28.6336 33.6333L25.7663 36.4982H39.7305L36.8632 33.6333C36.6285 33.3986 36.4966 33.0803 36.4966 32.7484C36.4966 32.4165 36.6285 32.0981 36.8632 31.8634C37.0979 31.6287 37.4162 31.4969 37.7481 31.4969C38.08 31.4969 38.3984 31.6287 38.6331 31.8634L43.6328 36.8632C43.7492 36.9793 43.8415 37.1172 43.9046 37.2691C43.9676 37.4209 44 37.5837 44 37.7481C44 37.9125 43.9676 38.0753 43.9046 38.2272C43.8415 38.379 43.7492 38.517 43.6328 38.6331L38.6331 43.6328C38.3984 43.8675 38.08 43.9993 37.7481 43.9993C37.4162 43.9993 37.0979 43.8675 36.8632 43.6328C36.6285 43.3981 36.4966 43.0798 36.4966 42.7478C36.4966 42.4159 36.6285 42.0976 36.8632 41.8629L39.7305 38.998H25.7663L28.6336 41.8629C28.75 41.979 28.8424 42.1169 28.9054 42.2688C28.9684 42.4206 29.0008 42.5834 29.0008 42.7478C29.0008 42.9122 28.9684 43.075 28.9054 43.2269C28.8424 43.3787 28.75 43.5167 28.6336 43.6328Z" fill="white"/>
</svg>
