<svg width="48" height="48" viewBox="0 0 48 48" fill="none" xmlns="http://www.w3.org/2000/svg">
<path d="M26.9072 7H13.985C13.0587 7 12.1704 7.3633 11.5154 8.00998C10.8604 8.65665 10.4925 9.53374 10.4925 10.4483V38.0345C10.4925 38.949 10.8604 39.8261 11.5154 40.4728C12.1704 41.1195 13.0587 41.4828 13.985 41.4828H34.9399C35.8662 41.4828 36.7545 41.1195 37.4095 40.4728C38.0644 39.8261 38.4324 38.949 38.4324 38.0345V25.2759M7 13.8966H13.985M7 20.7931H13.985M7 27.6897H13.985M7 34.5862H13.985" stroke="white" stroke-width="2.5" stroke-linecap="round" stroke-linejoin="round"/>
<path d="M35.6379 8.03448C36.3658 7.57059 37.2327 7.36698 38.0942 7.45757C38.9557 7.54816 39.7597 7.92749 40.3724 8.53235C40.985 9.13721 41.3692 9.93108 41.4609 10.7817C41.5527 11.6323 41.3464 12.4882 40.8766 13.2069L31.4469 22.5172L24.4619 24.2414L26.2082 17.3448L35.6379 8.03448Z" stroke="white" stroke-width="2.5" stroke-linecap="round" stroke-linejoin="round"/>
</svg>
