<svg width="162" height="110" viewBox="0 0 162 110" fill="none" xmlns="http://www.w3.org/2000/svg">
<path d="M41.7895 58.7913C41.9545 60.8905 43.1586 62.5058 44.4786 62.3993C45.7987 62.2928 46.7346 60.5049 46.5693 58.4051C46.5146 57.5653 46.262 56.7511 45.8325 56.0304L45.0222 47.1453L40.9102 47.619L42.1456 56.3278C41.8341 57.1084 41.712 57.9532 41.7895 58.7913Z" fill="#FFB6B6"/>
<path d="M36.8774 17.3391C36.8774 17.3391 40.7213 15.2799 42.6704 18.3571C44.6195 21.4344 45.9648 54.7153 45.9648 54.7153L40.5625 55.299L39.5384 31.8468L36.8774 17.3391Z" fill="#E6E6E6"/>
<path d="M28.8996 108.103L32.0292 108.103L33.518 95.8863L28.8989 95.8866L28.8996 108.103Z" fill="#FFB6B6"/>
<path d="M39.6218 108.031C39.7193 108.197 39.7707 108.733 39.7707 108.926C39.7707 109.52 39.2951 110.001 38.7085 110.001H29.0164C28.6162 110.001 28.2917 109.673 28.2917 109.268V108.86C28.2917 108.86 27.8123 107.632 28.7994 106.12C28.7994 106.12 30.0262 107.304 31.8595 105.449L32.4001 104.458L36.3133 107.354L38.4824 107.624C38.9569 107.683 39.3777 107.615 39.6218 108.031Z" fill="#2F2E41"/>
<path d="M47.0098 107.579L50.042 106.794L48.4967 94.5854L44.0215 95.7427L47.0098 107.579Z" fill="#FFB6B6"/>
<path d="M57.3811 104.823C57.5161 104.96 57.697 105.466 57.7442 105.653C57.8894 106.229 57.5464 106.814 56.978 106.961L47.5874 109.388C47.1997 109.489 46.805 109.252 46.706 108.859L46.6061 108.464C46.6061 108.464 45.8414 107.395 46.4278 105.682C46.4278 105.682 47.9062 106.522 49.2287 104.266L49.5101 103.17L54.0099 104.996L56.1776 104.714C56.6518 104.653 57.0428 104.481 57.3811 104.823Z" fill="#2F2E41"/>
<path d="M26.3095 14.7126L26.1611 13.6228L27.9248 9.2638L32.7706 8.71893L33.8169 14.9594L26.3095 14.7126Z" fill="#FFB6B6"/>
<path opacity="0.1" d="M26.3095 14.7126L26.1611 13.6228L27.9248 9.2638L32.7706 8.71893L33.8169 14.9594L26.3095 14.7126Z" fill="black"/>
<path d="M20.6566 45.4982L18.5029 51.4919L20.1182 54.7611L28.1946 102.165H33.564L32.502 60.2099L44.8857 102.165H50.2L45.9265 73.8318L42.732 47.6777L40.7944 46.4664L31.4251 41.1392L20.6566 45.4982Z" fill="#212658"/>
<path d="M34.3861 49.5848L31.1555 50.1297L26.8481 39.7771H36.5398L34.3861 49.5848Z" fill="#E6E6E6"/>
<path d="M40.8472 46.8604L34.3861 49.5848L32.2324 44.6809L31.1555 50.1297L19.8486 46.4463L21.4639 39.7771L19.8486 17.982L25.5506 14.1352L26.3097 13.623L33.3092 14.1679L33.923 14.5057L38.1551 16.8923L39.2319 34.8732L40.8472 46.8604Z" fill="#212658"/>
<path d="M33.9228 14.5057L30.8861 27.5174L25.5503 14.1352L26.3095 13.623L33.309 14.1679L33.9228 14.5057Z" fill="#E6E6E6"/>
<path d="M28.7331 13.623L27.6562 15.4998L28.7331 16.1254L28.1947 27.5512L30.3484 30.5142L32.5021 26.135L30.8868 16.1254L31.4252 13.623H28.7331Z" fill="#212658"/>
<path d="M30.3479 12.5331C33.1729 12.5331 35.463 10.2156 35.463 7.35679C35.463 4.49799 33.1729 2.18047 30.3479 2.18047C27.523 2.18047 25.2329 4.49799 25.2329 7.35679C25.2329 10.2156 27.523 12.5331 30.3479 12.5331Z" fill="#FFB6B6"/>
<path d="M27.0793 7.81101L28.1845 8.29913L28.6668 5.37042C28.6668 5.37042 30.5961 4.39419 32.0432 4.88231C33.4902 5.37042 35.9019 4.88231 35.9019 4.88231C35.9019 4.88231 35.9019 0.00112915 32.5255 0.00112915C29.1491 0.00112915 25.7728 0.489247 25.7728 1.9536C25.7728 3.41795 24.3258 4.88231 24.3258 4.88231C24.3258 4.88231 22.3964 7.81101 24.3258 9.76348C26.2551 11.716 27.2198 11.716 27.2198 11.716L27.0793 7.81101Z" fill="#2F2E41"/>
<path d="M17.154 58.638C17.098 60.743 18.1258 62.4786 19.4495 62.5145C20.7733 62.5504 21.8915 60.8732 21.9474 58.7675C21.9811 57.9266 21.8153 57.0898 21.4639 56.3271L21.5903 47.4051L17.4517 47.4343L17.7666 56.2267C17.375 56.9695 17.165 57.7963 17.154 58.638Z" fill="#FFB6B6"/>
<path d="M22.2744 16.8821C22.2744 16.8821 18.7746 15.7924 17.1593 19.0616C15.544 22.3309 17.6977 55.5683 17.6977 55.5683H23.1307L21.6888 32.1387L22.2744 16.8821Z" fill="#E6E6E6"/>
<path d="M151.072 54.8097L138.021 50.7666C137.732 50.6772 137.429 50.6445 137.128 50.6704L70.9828 56.3673C70.0397 56.4485 69.8027 57.7358 70.6536 58.1553L72.7724 59.1999H72.7159V109.205H74.7124V60.1564L81.3528 63.4302C81.8609 63.6807 82.4279 63.7829 82.9902 63.7254L83.6967 63.6532V109.205H85.6932V63.4491L136.854 58.2195V109.205H138.85V58.0154L147.335 57.1481V109.205H149.332V56.944L150.88 56.7857C151.967 56.6746 152.117 55.1333 151.072 54.8097Z" fill="#3F3D56"/>
<path d="M90.1855 56.1694C91.4334 56.1694 109.901 53.8964 109.901 53.8964L112.646 57.6847L93.4299 61.473L90.1855 56.1694Z" fill="white"/>
<path d="M110.454 107.263L107.246 107.257L105.741 94.7307L110.476 94.7393L110.454 107.263Z" fill="#A0616A"/>
<path d="M99.4613 107.171C99.3611 107.341 99.3075 107.89 99.3071 108.088C99.3061 108.697 99.7928 109.191 100.394 109.192L110.331 109.21C110.741 109.21 111.074 108.874 111.075 108.459L111.076 108.04C111.076 108.04 111.569 106.783 110.56 105.23C110.56 105.23 109.3 106.443 107.424 104.537L106.871 103.52L102.854 106.483L100.63 106.756C100.144 106.816 99.7123 106.745 99.4613 107.171Z" fill="#2F2E41"/>
<path d="M127.674 101.438L125.143 103.371L116.573 94.4092L120.309 91.5573L127.674 101.438Z" fill="#A0616A"/>
<path d="M118.959 108.001C118.98 108.196 119.262 108.661 119.378 108.817C119.736 109.298 120.411 109.393 120.885 109.031L128.724 103.046C129.048 102.799 129.113 102.333 128.868 102.006L128.622 101.676C128.622 101.676 128.27 100.387 126.56 99.7729C126.56 99.7729 126.281 101.488 123.68 101.12L122.645 100.652L121.226 105.411L119.635 106.969C119.287 107.31 118.905 107.514 118.959 108.001Z" fill="#2F2E41"/>
<path d="M120.969 36.6967C120.969 39.691 118.57 42.1183 115.611 42.1183C112.652 42.1183 110.254 39.691 110.254 36.6967C110.254 33.7025 112.652 31.2751 115.611 31.2751C118.57 31.2751 120.969 33.7025 120.969 36.6967Z" fill="#A0616A"/>
<path d="M120.464 67.9562C120.464 67.9562 100.739 66.8263 99.6222 69.0861C98.5057 71.3458 105.658 102.386 105.658 102.386L112.04 101.033L108.927 79.2551C108.927 79.2551 125.387 83.6667 127.62 78.3938C129.853 73.1209 129.21 71.1575 129.21 71.1575L120.464 67.9562Z" fill="#2F2E41"/>
<path d="M125.518 64.1633C125.518 64.1633 106.2 68.3541 105.714 70.8323C105.228 73.3105 120.24 101.33 120.24 101.33L126.04 98.317L117.345 78.1484C117.345 78.1484 134.372 77.9963 135.147 72.3134C135.922 66.6306 134.789 64.9093 134.789 64.9093L125.518 64.1633Z" fill="#2F2E41"/>
<path d="M127.721 42.9104H118.44L112.09 53.4561C112.09 53.4561 110.601 60.2711 112.09 61.0066C113.579 61.742 113.579 69.6513 113.579 69.6513L129.21 71.1579C129.21 71.1579 131.443 47.43 130.699 45.1702C129.954 42.9104 127.721 42.9104 127.721 42.9104Z" fill="#4430A8"/>
<path d="M113.02 49.8783L112.09 61.0067L101.625 56.512L99.127 55.2407C98.6378 54.5952 98.0029 54.0776 97.2755 53.7312C95.4666 52.8391 93.5462 53.0601 92.9854 54.2246C92.4245 55.3891 93.4357 57.0562 95.2441 57.9477C95.9621 58.3142 96.7564 58.5013 97.5605 58.4934L104.869 62.6939L104.877 62.6775L104.91 62.736L116.37 67.58L119.007 52.971L113.02 49.8783Z" fill="#A0616A"/>
<path d="M111.904 37.4491C111.904 37.4491 106.321 38.2023 108.554 33.3061C108.554 33.3061 108.214 30.6519 109.873 30.4725C111.531 30.293 113.765 27.28 113.765 27.28C113.765 27.28 118.884 24.6435 121.535 27.28C124.185 29.9164 132.001 45.3584 132.001 45.3584L126.791 51.0079C126.791 51.0079 123.658 42.6745 120.014 43.6398C116.37 44.6051 113.02 47.4832 113.02 47.4832C113.02 47.4832 109.322 45.6103 110.985 43.9778C112.648 42.3453 111.904 37.4491 111.904 37.4491Z" fill="#2F2E41"/>
<path d="M119.347 45.7352C119.347 45.7352 116.742 42.3455 114.881 44.9819C113.02 47.6184 111.532 51.0081 111.532 51.0081L118.975 53.6445L119.347 45.7352Z" fill="#4430A8"/>
<path d="M147.609 108.456L138.961 80.6394L138.962 80.6393H138.982L138.947 80.5938L138.946 80.5929L138.331 78.6115L138.331 78.6113C139.269 77.793 139.908 76.6237 140.035 75.2776L136.082 53.2752C136.354 50.3859 134.166 47.8604 131.298 47.7569L122.379 47.7341C119.843 47.6432 117.647 49.4969 117.278 52.0376L117.081 53.3863L114.348 72.199C114.248 72.8758 114.288 73.5426 114.445 74.1664L112.479 74.4265L111.882 74.5073L109.524 74.8179L109.516 74.8205L109.222 74.8584H108.902V82.9401H108.922V108.771C108.922 108.938 109.057 109.074 109.222 109.074C109.389 109.074 109.524 108.938 109.524 108.771V82.9401H113.023L116.514 108.741C116.536 108.892 116.664 109.004 116.814 109.004C116.826 109.004 116.841 109.004 116.853 109.001C117.018 108.978 117.133 108.824 117.11 108.658L113.632 82.9401H130.42C132.087 82.9401 133.631 82.4048 134.889 81.4881L141.545 108.694C141.58 108.831 141.702 108.923 141.836 108.923C141.861 108.923 141.886 108.92 141.911 108.913C142.072 108.872 142.169 108.706 142.128 108.544L135.407 81.075C135.497 80.9996 135.586 80.9192 135.67 80.8363L138.343 80.6773L147.036 108.639C147.076 108.768 147.194 108.852 147.322 108.852C147.352 108.852 147.382 108.847 147.412 108.837C147.571 108.787 147.659 108.616 147.609 108.456ZM137.759 79.0432C137.782 79.0306 137.802 79.0154 137.822 79.0027L137.886 79.2092L137.759 79.0432Z" fill="#E6E6E6"/>
</svg>
