<svg width="48" height="48" viewBox="0 0 48 48" fill="none" xmlns="http://www.w3.org/2000/svg">
<path d="M22.5 9.06602C19.3662 7.05876 15.7215 5.99451 12 6.00002C9.78598 5.99776 7.5878 6.37314 5.5 7.11002C5.20758 7.21341 4.9544 7.40489 4.77532 7.65812C4.59623 7.91135 4.50004 8.21387 4.5 8.52402V37.024C4.50003 37.264 4.55763 37.5004 4.66796 37.7135C4.77829 37.9266 4.93813 38.1101 5.13406 38.2486C5.32999 38.3871 5.5563 38.4766 5.79397 38.5096C6.03165 38.5426 6.27377 38.518 6.5 38.438C8.26667 37.8149 10.1267 37.4977 12 37.5C15.99 37.5 19.646 38.914 22.5 41.272V9.06602ZM25.5 41.272C28.4528 38.8283 32.1671 37.494 36 37.5C37.932 37.5 39.78 37.832 41.5 38.44C41.7264 38.5201 41.9687 38.5446 42.2065 38.5115C42.4444 38.4785 42.6708 38.3888 42.8668 38.25C43.0627 38.1113 43.2225 37.9275 43.3327 37.7142C43.4429 37.5008 43.5003 37.2641 43.5 37.024V8.52402C43.5 8.21387 43.4038 7.91135 43.2247 7.65812C43.0456 7.40489 42.7924 7.21341 42.5 7.11002C40.4122 6.37314 38.214 5.99776 36 6.00002C32.2785 5.99451 28.6338 7.05876 25.5 9.06602V41.272Z" fill="white"/>
</svg>
