<svg width="14" height="9" viewBox="0 0 14 9" fill="none" xmlns="http://www.w3.org/2000/svg">
<path fill-rule="evenodd" clip-rule="evenodd" d="M7.4417 8.06667C7.32451 8.18371 7.16566 8.24945 7.00003 8.24945C6.83441 8.24945 6.67556 8.18371 6.55837 8.06667L0.308368 1.81667C0.197968 1.69819 0.137866 1.54149 0.140722 1.37957C0.143579 1.21765 0.209173 1.06316 0.323683 0.948652C0.438194 0.834141 0.592682 0.768548 0.754599 0.765691C0.916517 0.762834 1.07322 0.822936 1.1917 0.933336L7.00003 6.74167L12.8084 0.933336C12.8656 0.871931 12.9346 0.822679 13.0113 0.788519C13.0879 0.754359 13.1707 0.735991 13.2546 0.73451C13.3385 0.73303 13.4219 0.748467 13.4997 0.779901C13.5775 0.811335 13.6482 0.858122 13.7076 0.917471C13.7669 0.97682 13.8137 1.04752 13.8451 1.12534C13.8766 1.20316 13.892 1.28652 13.8905 1.37044C13.889 1.45436 13.8707 1.53712 13.8365 1.61379C13.8024 1.69045 13.7531 1.75945 13.6917 1.81667L7.4417 8.06667Z" fill="#141414"/>
</svg>
