<svg width="20" height="21" viewBox="0 0 20 21" fill="none" xmlns="http://www.w3.org/2000/svg">
<path fill-rule="evenodd" clip-rule="evenodd" d="M6.43337 10.0584C6.31633 10.1755 6.25058 10.3344 6.25058 10.5C6.25058 10.6657 6.31633 10.8245 6.43337 10.9417L12.6834 17.1917C12.8018 17.3021 12.9586 17.3622 13.1205 17.3593C13.2824 17.3565 13.4369 17.2909 13.5514 17.1764C13.6659 17.0619 13.7315 16.9074 13.7343 16.7455C13.7372 16.5835 13.6771 16.4268 13.5667 16.3084L7.75837 10.5L13.5667 4.69169C13.6281 4.63448 13.6774 4.56548 13.7115 4.48881C13.7457 4.41214 13.764 4.32938 13.7655 4.24546C13.767 4.16154 13.7516 4.07819 13.7201 4.00036C13.6887 3.92254 13.6419 3.85184 13.5826 3.79249C13.5232 3.73314 13.4525 3.68636 13.3747 3.65492C13.2969 3.62349 13.2135 3.60805 13.1296 3.60953C13.0457 3.61101 12.9629 3.62938 12.8863 3.66354C12.8096 3.6977 12.7406 3.74695 12.6834 3.80836L6.43337 10.0584Z" fill="#141414"/>
</svg>
