<svg width="20" height="21" viewBox="0 0 20 21" fill="none" xmlns="http://www.w3.org/2000/svg">
<path fill-rule="evenodd" clip-rule="evenodd" d="M10.4417 14.0667C10.3245 14.1837 10.1657 14.2494 10 14.2494C9.83441 14.2494 9.67556 14.1837 9.55837 14.0667L3.30837 7.81666C3.19797 7.69818 3.13787 7.54148 3.14072 7.37956C3.14358 7.21764 3.20917 7.06315 3.32368 6.94864C3.43819 6.83413 3.59268 6.76854 3.7546 6.76568C3.91652 6.76283 4.07322 6.82293 4.1917 6.93333L10 12.7417L15.8084 6.93333C15.8656 6.87192 15.9346 6.82267 16.0113 6.78851C16.0879 6.75435 16.1707 6.73598 16.2546 6.7345C16.3385 6.73302 16.4219 6.74846 16.4997 6.77989C16.5775 6.81133 16.6482 6.85811 16.7076 6.91746C16.7669 6.97681 16.8137 7.04751 16.8451 7.12533C16.8766 7.20315 16.892 7.28651 16.8905 7.37043C16.889 7.45435 16.8707 7.53711 16.8365 7.61378C16.8024 7.69044 16.7531 7.75944 16.6917 7.81666L10.4417 14.0667Z" fill="#141414"/>
</svg>
