<svg width="24" height="24" viewBox="0 0 24 24" fill="none" xmlns="http://www.w3.org/2000/svg">
<path d="M3.52985 2.46997C3.38767 2.33749 3.19963 2.26537 3.00532 2.26879C2.81102 2.27222 2.62564 2.35093 2.48822 2.48835C2.35081 2.62576 2.2721 2.81114 2.26867 3.00545C2.26524 3.19975 2.33737 3.38779 2.46985 3.52997L20.4698 21.53C20.5385 21.6037 20.6213 21.6628 20.7133 21.7038C20.8053 21.7447 20.9046 21.7668 21.0053 21.7686C21.106 21.7703 21.2061 21.7518 21.2994 21.7141C21.3928 21.6764 21.4777 21.6202 21.5489 21.549C21.6201 21.4778 21.6762 21.393 21.714 21.2996C21.7517 21.2062 21.7702 21.1062 21.7684 21.0054C21.7667 20.9047 21.7446 20.8054 21.7036 20.7134C21.6626 20.6214 21.6035 20.5386 21.5298 20.47L3.52985 2.46997ZM22.6758 12.553C22.1368 14.1705 21.2371 15.6442 20.0448 16.863L16.9458 13.764C17.2802 12.8279 17.3419 11.8161 17.1239 10.8463C16.9058 9.87657 16.4169 8.98861 15.7141 8.28575C15.0112 7.58289 14.1232 7.09401 13.1535 6.87595C12.1837 6.65789 11.1719 6.71963 10.2358 7.05397L7.75885 4.57697C9.10587 4.02893 10.5466 3.74805 12.0008 3.74997C16.9708 3.74997 21.1858 6.97297 22.6758 11.44C22.7958 11.802 22.7958 12.192 22.6758 12.553Z" fill="#5C5A60"/>
<path d="M15.7498 12.0001C15.7498 12.1801 15.7368 12.3571 15.7128 12.5301L11.4688 8.28705C12.0008 8.21096 12.5429 8.25009 13.0584 8.4018C13.574 8.5535 14.0509 8.81424 14.4568 9.16635C14.8628 9.51846 15.1884 9.95371 15.4114 10.4426C15.6345 10.9315 15.7499 11.4627 15.7498 12.0001ZM12.5298 15.7131L8.28679 11.4691C8.20435 12.0455 8.2573 12.6333 8.44144 13.1857C8.62558 13.7382 8.93586 14.2402 9.34769 14.6519C9.75951 15.0636 10.2616 15.3738 10.8141 15.5578C11.3666 15.7418 11.9543 15.7946 12.5308 15.7121L12.5298 15.7131Z" fill="#5C5A60"/>
<path d="M6.75037 12C6.75037 11.381 6.85737 10.787 7.05437 10.236L3.95438 7.13599C2.76248 8.35483 1.86316 9.82861 1.32437 11.446C1.20437 11.808 1.20437 12.198 1.32437 12.56C2.81337 17.027 7.02837 20.25 11.9994 20.25C13.4994 20.25 14.9324 19.956 16.2414 19.423L13.7644 16.946C12.972 17.2286 12.1234 17.3168 11.2898 17.2029C10.4563 17.0891 9.66237 16.7766 8.97485 16.2917C8.28734 15.8069 7.7264 15.164 7.33927 14.4171C6.95215 13.6702 6.75018 12.8412 6.75037 12Z" fill="#5C5A60"/>
</svg>
