<svg width="24" height="24" viewBox="0 0 24 24" fill="none" xmlns="http://www.w3.org/2000/svg">
<path fill-rule="evenodd" clip-rule="evenodd" d="M1.32356 11.447C2.81156 6.976 7.02856 3.75 12.0016 3.75C16.9716 3.75 21.1866 6.973 22.6766 11.44C22.7966 11.802 22.7966 12.192 22.6766 12.553C21.1896 17.024 16.9716 20.25 11.9996 20.25C7.02956 20.25 2.81356 17.027 1.32456 12.56C1.20431 12.1987 1.20431 11.8083 1.32456 11.447H1.32356ZM17.2506 12C17.2506 13.3924 16.6974 14.7277 15.7129 15.7123C14.7283 16.6969 13.393 17.25 12.0006 17.25C10.6082 17.25 9.27282 16.6969 8.28825 15.7123C7.30369 14.7277 6.75056 13.3924 6.75056 12C6.75056 10.6076 7.30369 9.27225 8.28825 8.28769C9.27282 7.30312 10.6082 6.75 12.0006 6.75C13.393 6.75 14.7283 7.30312 15.7129 8.28769C16.6974 9.27225 17.2506 10.6076 17.2506 12Z" fill="#5C5A60"/>
<path d="M12 15C12.7956 15 13.5587 14.6839 14.1213 14.1213C14.6839 13.5587 15 12.7956 15 12C15 11.2044 14.6839 10.4413 14.1213 9.87868C13.5587 9.31607 12.7956 9 12 9C11.2044 9 10.4413 9.31607 9.87868 9.87868C9.31607 10.4413 9 11.2044 9 12C9 12.7956 9.31607 13.5587 9.87868 14.1213C10.4413 14.6839 11.2044 15 12 15Z" fill="#5C5A60"/>
</svg>
