<svg width="36" height="36" viewBox="0 0 44 44" fill="none" xmlns="http://www.w3.org/2000/svg">
<path fill-rule="evenodd" clip-rule="evenodd" d="M22 4.125C12.1275 4.125 4.125 12.1275 4.125 22C4.125 31.8725 12.1275 39.875 22 39.875C31.8725 39.875 39.875 31.8725 39.875 22C39.875 12.1275 31.8725 4.125 22 4.125ZM17.1875 15.125C16.1975 15.125 15.6695 15.8932 15.4715 16.2873C15.2363 16.7832 15.1177 17.3263 15.125 17.875C15.125 18.4213 15.2332 18.9842 15.4715 19.4627C15.6695 19.8568 16.1957 20.625 17.1875 20.625C18.1775 20.625 18.7055 19.8568 18.9035 19.4627C19.1418 18.986 19.25 18.4213 19.25 17.875C19.25 17.3287 19.1418 16.7658 18.9035 16.2873C18.7055 15.8932 18.1793 15.125 17.1875 15.125ZM25.0965 16.2873C25.2945 15.8932 25.8207 15.125 26.8125 15.125C27.8025 15.125 28.3305 15.8932 28.5285 16.2873C28.7668 16.764 28.875 17.3287 28.875 17.875C28.875 18.4213 28.7668 18.9842 28.5285 19.4627C28.3305 19.8568 27.8043 20.625 26.8125 20.625C25.8225 20.625 25.2945 19.8568 25.0965 19.4627C24.8613 18.9668 24.7427 18.4237 24.75 17.875C24.75 17.3287 24.8582 16.7658 25.0965 16.2873ZM28.8053 28.8053C28.9404 28.6795 29.0488 28.5277 29.1239 28.359C29.1991 28.1903 29.2395 28.0082 29.2428 27.8236C29.246 27.639 29.212 27.4556 29.1429 27.2844C29.0737 27.1132 28.9708 26.9577 28.8402 26.8271C28.7097 26.6965 28.5541 26.5936 28.3829 26.5244C28.2117 26.4553 28.0283 26.4213 27.8437 26.4246C27.6591 26.4278 27.477 26.4683 27.3083 26.5434C27.1397 26.6186 26.9879 26.7269 26.862 26.862C26.2236 27.5006 25.4656 28.0072 24.6314 28.3528C23.7971 28.6984 22.903 28.8763 22 28.8763C21.097 28.8763 20.2029 28.6984 19.3686 28.3528C18.5344 28.0072 17.7764 27.5006 17.138 26.862C16.8773 26.6191 16.5326 26.4869 16.1764 26.4932C15.8202 26.4995 15.4803 26.6438 15.2284 26.8957C14.9764 27.1476 14.8321 27.4875 14.8258 27.8437C14.8196 28.1999 14.9518 28.5447 15.1947 28.8053C16.9997 30.61 19.4476 31.6239 22 31.6239C24.5524 31.6239 27.0003 30.61 28.8053 28.8053Z" fill="#141414"/>
</svg>
