<svg width="24" height="24" viewBox="0 0 24 24" fill="none" xmlns="http://www.w3.org/2000/svg">
<path d="M11.4699 3.84111C11.6106 3.70066 11.8012 3.62177 11.9999 3.62177C12.1987 3.62177 12.3893 3.70066 12.5299 3.84111L21.2199 12.5311C21.2892 12.6027 21.3719 12.6598 21.4635 12.6991C21.555 12.7383 21.6534 12.759 21.753 12.7598C21.8526 12.7606 21.9513 12.7416 22.0435 12.7038C22.1356 12.6661 22.2194 12.6104 22.2897 12.5399C22.3601 12.4694 22.4158 12.3857 22.4534 12.2935C22.4911 12.2013 22.51 12.1025 22.5091 12.003C22.5082 11.9034 22.4875 11.805 22.4481 11.7135C22.4088 11.622 22.3516 11.5393 22.2799 11.4701L13.5909 2.78011C13.382 2.57118 13.134 2.40544 12.861 2.29237C12.588 2.17929 12.2954 2.12109 11.9999 2.12109C11.7045 2.12109 11.4119 2.17929 11.1389 2.29237C10.8659 2.40544 10.6179 2.57118 10.4089 2.78011L1.71894 11.4701C1.64734 11.5393 1.59025 11.6221 1.55098 11.7136C1.51172 11.8052 1.49108 11.9036 1.49026 12.0032C1.48944 12.1028 1.50846 12.2015 1.54622 12.2937C1.58397 12.3858 1.6397 12.4695 1.71015 12.5399C1.78061 12.6103 1.86437 12.6659 1.95656 12.7036C2.04875 12.7413 2.14752 12.7602 2.2471 12.7593C2.34669 12.7584 2.44509 12.7377 2.53658 12.6983C2.62806 12.659 2.71079 12.6018 2.77994 12.5301L11.4699 3.84111Z" fill="#5C5A60"/>
<path d="M12 5.43164L20.159 13.5906C20.189 13.6206 20.219 13.6486 20.25 13.6766V19.8746C20.25 20.9096 19.41 21.7496 18.375 21.7496H15C14.8011 21.7496 14.6103 21.6706 14.4697 21.53C14.329 21.3893 14.25 21.1986 14.25 20.9996V16.4996C14.25 16.3007 14.171 16.11 14.0303 15.9693C13.8897 15.8287 13.6989 15.7496 13.5 15.7496H10.5C10.3011 15.7496 10.1103 15.8287 9.96967 15.9693C9.82902 16.11 9.75 16.3007 9.75 16.4996V20.9996C9.75 21.1986 9.67098 21.3893 9.53033 21.53C9.38968 21.6706 9.19891 21.7496 9 21.7496H5.625C5.12772 21.7496 4.65081 21.5521 4.29917 21.2005C3.94754 20.8488 3.75 20.3719 3.75 19.8746V13.6766C3.78111 13.6488 3.81146 13.6201 3.841 13.5906L12 5.43164Z" fill="#5C5A60"/>
</svg>
