<svg width="20" height="20" viewBox="0 0 20 20" fill="none" xmlns="http://www.w3.org/2000/svg">
<path d="M9.99959 0.625C8.48671 0.62466 7.01596 1.12336 5.81529 2.0438C4.61462 2.96424 3.75109 4.25502 3.35853 5.71609C2.96596 7.17715 3.0663 8.72691 3.64398 10.1252C4.22166 11.5234 5.24443 12.6921 6.55376 13.45C7.12543 13.7817 7.48293 14.29 7.49876 14.8025C7.50313 14.9398 7.5526 15.0718 7.63951 15.1781C7.72642 15.2845 7.84594 15.3592 7.97959 15.3908C8.27293 15.46 8.57126 15.5142 8.87459 15.5533C9.14376 15.5875 9.37459 15.3717 9.37459 15.1V11.2158C9.11127 11.1869 8.85034 11.1393 8.59376 11.0733C8.51426 11.0529 8.43956 11.0169 8.37394 10.9676C8.30832 10.9183 8.25306 10.8565 8.21131 10.7858C8.16956 10.7151 8.14215 10.6369 8.13063 10.5556C8.11911 10.4743 8.12371 10.3916 8.14418 10.3121C8.16464 10.2326 8.20057 10.1579 8.2499 10.0923C8.29923 10.0266 8.361 9.97138 8.43169 9.92963C8.50238 9.88788 8.5806 9.86047 8.66188 9.84895C8.74317 9.83743 8.82592 9.84204 8.90543 9.8625C9.62315 10.0475 10.376 10.0475 11.0938 9.8625C11.1741 9.83936 11.2582 9.83256 11.3412 9.84251C11.4242 9.85245 11.5043 9.87893 11.5769 9.92039C11.6494 9.96185 11.7129 10.0174 11.7636 10.0839C11.8143 10.1503 11.8512 10.2262 11.8721 10.3072C11.8929 10.3881 11.8973 10.4724 11.885 10.5551C11.8727 10.6377 11.8439 10.7171 11.8004 10.7884C11.7569 10.8598 11.6996 10.9217 11.6317 10.9705C11.5639 11.0193 11.4869 11.054 11.4054 11.0725C11.1489 11.1387 10.8879 11.1866 10.6246 11.2158V15.0992C10.6246 15.3717 10.8554 15.5875 11.1246 15.5533C11.4279 15.5142 11.7263 15.46 12.0196 15.3908C12.1532 15.3592 12.2728 15.2845 12.3597 15.1781C12.4466 15.0718 12.4961 14.9398 12.5004 14.8025C12.5171 14.29 12.8738 13.7817 13.4454 13.45C14.7548 12.6921 15.7775 11.5234 16.3552 10.1252C16.9329 8.72691 17.0332 7.17715 16.6407 5.71609C16.2481 4.25502 15.3846 2.96424 14.1839 2.0438C12.9832 1.12336 11.5125 0.62466 9.99959 0.625Z" fill="#9650FA"/>
<path fill-rule="evenodd" clip-rule="evenodd" d="M7.51086 16.5833C7.52616 16.5027 7.55721 16.4258 7.60222 16.3572C7.64724 16.2885 7.70534 16.2294 7.7732 16.1832C7.84107 16.137 7.91738 16.1046 7.99776 16.0879C8.07815 16.0712 8.16104 16.0705 8.24169 16.0858C9.40355 16.3063 10.5965 16.3063 11.7584 16.0858C11.84 16.0679 11.9244 16.0665 12.0066 16.0817C12.0888 16.0969 12.1671 16.1285 12.2369 16.1745C12.3067 16.2205 12.3665 16.2801 12.4128 16.3497C12.4592 16.4192 12.4911 16.4974 12.5067 16.5795C12.5223 16.6616 12.5213 16.7461 12.5037 16.8278C12.4861 16.9095 12.4523 16.9869 12.4043 17.0553C12.3563 17.1237 12.295 17.1818 12.2241 17.2261C12.1533 17.2704 12.0742 17.3001 11.9917 17.3133C10.6757 17.5631 9.32439 17.5631 8.00836 17.3133C7.84563 17.2824 7.70182 17.1882 7.60854 17.0513C7.51525 16.9144 7.48012 16.7461 7.51086 16.5833ZM8.12836 18.62C8.13689 18.5384 8.16141 18.4592 8.20054 18.387C8.23967 18.3149 8.29262 18.2511 8.35639 18.1994C8.42015 18.1478 8.49348 18.1091 8.57217 18.0858C8.65086 18.0624 8.73339 18.0548 8.81503 18.0633C9.60288 18.1457 10.3972 18.1457 11.185 18.0633C11.3499 18.0461 11.5149 18.0951 11.6436 18.1995C11.7724 18.3039 11.8545 18.4551 11.8717 18.62C11.8889 18.7849 11.84 18.9499 11.7356 19.0786C11.6312 19.2074 11.4799 19.2894 11.315 19.3067C10.4407 19.3982 9.5593 19.3982 8.68503 19.3067C8.60338 19.2981 8.52422 19.2736 8.45206 19.2345C8.3799 19.1954 8.31615 19.1424 8.26446 19.0786C8.21277 19.0149 8.17414 18.9416 8.15079 18.8629C8.12744 18.7842 8.11981 18.7017 8.12836 18.62Z" fill="#9650FA"/>
</svg>
