<svg width="300" height="110" viewBox="0 0 300 110" fill="none" xmlns="http://www.w3.org/2000/svg">
<mask id="mask0_252_7618" style="mask-type:luminance" maskUnits="userSpaceOnUse" x="0" y="0" width="300" height="109">
<path d="M300 0H0V108.621H300V0Z" fill="white"/>
</mask>
<g mask="url(#mask0_252_7618)">
<path d="M0 108.621V2.35464C0 2.35464 24.2616 -2.9433 47.3348 2.35464C70.408 7.6526 77.897 21.6783 77.5765 40.876C77.1348 67.3282 56.038 74.7232 21.0377 73.058L20.7569 108.621H0Z" fill="#141414"/>
<path d="M20.6895 55.6035V18.5064C48.4761 16.9396 58.5886 19.4218 58.1896 35.3168C57.9396 54.168 45.3866 55.7108 20.6895 55.6035Z" fill="white"/>
<path d="M107.328 33.6208C115.183 33.6208 121.552 26.0945 121.552 16.8104C121.552 7.52625 115.183 0 107.328 0C99.4718 0 93.1035 7.52625 93.1035 16.8104C93.1035 26.0945 99.4718 33.6208 107.328 33.6208Z" fill="#9650FA"/>
<path d="M111.207 43.9656H103.448C97.735 43.9656 93.1035 48.5971 93.1035 54.3103V98.2758C93.1035 103.989 97.735 108.621 103.448 108.621H111.207C116.92 108.621 121.552 103.989 121.552 98.2758V54.3103C121.552 48.5971 116.92 43.9656 111.207 43.9656Z" fill="#9650FA"/>
<path d="M147.414 96.6702C147.414 103.269 152.827 108.752 159.266 107.311C162.312 106.631 165.301 105.687 168.198 104.487C174.787 101.757 180.774 97.7567 185.817 92.7135C190.861 87.6705 194.861 81.6832 197.59 75.0942C200.32 68.5047 201.725 61.4427 201.725 54.3105C201.725 47.1782 200.32 40.116 197.59 33.5265C194.861 26.9375 190.861 20.9503 185.817 15.9072C180.774 10.864 174.787 6.86352 168.198 4.13417C165.301 2.93412 162.312 1.99015 159.266 1.30906C152.827 -0.131009 147.414 5.35189 147.414 11.9507C147.414 18.5469 152.959 23.6874 159.053 26.2117C162.743 27.7402 166.096 29.9805 168.92 32.8045C171.744 35.6287 173.984 38.9817 175.513 42.6715C177.041 46.3615 177.828 50.3165 177.828 54.3105C177.828 58.3042 177.041 62.2592 175.513 65.9492C173.984 69.639 171.744 72.9922 168.92 75.8162C166.096 78.6405 162.743 80.8805 159.053 82.409C152.959 84.9335 147.414 90.0737 147.414 96.6702Z" fill="#9650FA"/>
<path d="M217.241 108.621V1.35776H234.796V50.237L274.922 0H297.492L259.875 48.8792L300 108.621H276.175L246.081 62.457L234.796 76.0345V108.621H217.241Z" fill="#141414"/>
</g>
</svg>
