<svg width="48" height="48" viewBox="0 0 48 48" fill="none" xmlns="http://www.w3.org/2000/svg">
<path d="M33.7616 8.69002C28.2722 10.8872 22.4123 12.0109 16.4996 12H14.9996C12.365 11.9962 9.82534 12.9829 7.88441 14.7644C5.94348 16.5458 4.74315 18.9918 4.52159 21.617C4.30003 24.2422 5.07344 26.8547 6.68835 28.9363C8.30326 31.0178 10.6417 32.4162 13.2396 32.854C13.9016 35.5635 14.8246 38.2025 15.9956 40.734C16.9236 42.742 19.3436 43.374 21.1596 42.326L22.4736 41.568C24.2336 40.552 24.8036 38.382 24.0176 36.632C23.5451 35.5825 23.1259 34.5098 22.7616 33.418C26.5976 33.934 30.2816 34.918 33.7616 36.31C35.2486 31.8578 36.0043 27.194 35.9996 22.5C35.9996 17.672 35.2136 13.03 33.7616 8.69002ZM36.5196 7.48002C38.1668 12.3162 39.0047 17.391 38.9996 22.5C39.0051 27.9523 38.0506 33.3629 36.1796 38.484C36.1118 38.6691 36.0811 38.8656 36.0893 39.0625C36.0976 39.2594 36.1445 39.4527 36.2274 39.6315C36.3103 39.8102 36.4276 39.9709 36.5726 40.1043C36.7177 40.2377 36.8875 40.3413 37.0726 40.409C37.2576 40.4768 37.4542 40.5074 37.651 40.4992C37.8479 40.491 38.0413 40.4441 38.22 40.3612C38.3988 40.2783 38.5594 40.161 38.6928 40.0159C38.8263 39.8709 38.9298 39.7011 38.9976 39.516C40.5139 35.3758 41.4658 31.0503 41.8276 26.656C42.902 25.5394 43.5013 24.0496 43.4996 22.5C43.4996 20.886 42.8616 19.42 41.8276 18.344C41.4635 13.9501 40.5117 9.62486 38.9976 5.48402C38.9298 5.29899 38.8263 5.12912 38.6928 4.9841C38.5594 4.83909 38.3988 4.72177 38.22 4.63884C37.859 4.47137 37.4463 4.45417 37.0726 4.59102C36.6989 4.72788 36.3948 5.00757 36.2274 5.36858C36.0599 5.72959 36.0427 6.14233 36.1796 6.51602C36.2976 6.83602 36.4116 7.15602 36.5196 7.48002Z" fill="white"/>
</svg>
