<svg width="20" height="20" viewBox="0 0 20 20" fill="none" xmlns="http://www.w3.org/2000/svg">
<path fill-rule="evenodd" clip-rule="evenodd" d="M13.7504 3.125C14.0819 3.125 14.3999 3.2567 14.6343 3.49112C14.8687 3.72554 15.0004 4.04348 15.0004 4.375V15.625C15.0004 15.9565 14.8687 16.2745 14.6343 16.5089C14.3999 16.7433 14.0819 16.875 13.7504 16.875H8.75042C8.4189 16.875 8.10096 16.7433 7.86654 16.5089C7.63212 16.2745 7.50043 15.9565 7.50043 15.625V12.5C7.50043 12.3342 7.43458 12.1753 7.31737 12.0581C7.20016 11.9408 7.04119 11.875 6.87543 11.875C6.70966 11.875 6.55069 11.9408 6.43348 12.0581C6.31627 12.1753 6.25043 12.3342 6.25043 12.5V15.625C6.25043 16.288 6.51382 16.9239 6.98266 17.3928C7.4515 17.8616 8.08738 18.125 8.75042 18.125H13.7504C14.4135 18.125 15.0493 17.8616 15.5182 17.3928C15.987 16.9239 16.2504 16.288 16.2504 15.625V4.375C16.2504 3.71196 15.987 3.07607 15.5182 2.60723C15.0493 2.13839 14.4135 1.875 13.7504 1.875H8.75042C8.08738 1.875 7.4515 2.13839 6.98266 2.60723C6.51382 3.07607 6.25043 3.71196 6.25043 4.375V7.5C6.25043 7.66576 6.31627 7.82473 6.43348 7.94194C6.55069 8.05915 6.70966 8.125 6.87543 8.125C7.04119 8.125 7.20016 8.05915 7.31737 7.94194C7.43458 7.82473 7.50043 7.66576 7.50043 7.5V4.375C7.50043 4.04348 7.63212 3.72554 7.86654 3.49112C8.10096 3.2567 8.4189 3.125 8.75042 3.125H13.7504ZM4.81709 7.05833C4.6999 6.94129 4.54105 6.87555 4.37543 6.87555C4.2098 6.87555 4.05095 6.94129 3.93376 7.05833L1.43376 9.55833C1.31672 9.67552 1.25098 9.83437 1.25098 10C1.25098 10.1656 1.31672 10.3245 1.43376 10.4417L3.93376 12.9417C4.05224 13.0521 4.20894 13.1122 4.37086 13.1093C4.53278 13.1065 4.68727 13.0409 4.80178 12.9264C4.91629 12.8118 4.98188 12.6574 4.98474 12.4954C4.9876 12.3335 4.92749 12.1768 4.81709 12.0583L3.38376 10.625H12.5004C12.6662 10.625 12.8252 10.5592 12.9424 10.4419C13.0596 10.3247 13.1254 10.1658 13.1254 10C13.1254 9.83424 13.0596 9.67527 12.9424 9.55806C12.8252 9.44085 12.6662 9.375 12.5004 9.375H3.38376L4.81709 7.94167C4.93413 7.82448 4.99988 7.66563 4.99988 7.5C4.99988 7.33437 4.93413 7.17552 4.81709 7.05833Z" fill="#FF3B32"/>
</svg>
