<svg width="48" height="48" viewBox="0 0 48 48" fill="none" xmlns="http://www.w3.org/2000/svg">
<path d="M21.2 27.6L16.85 23.25C16.4833 22.8833 16.0333 22.7 15.5 22.7C14.9667 22.7 14.5 22.9 14.1 23.3C13.7333 23.6667 13.55 24.1333 13.55 24.7C13.55 25.2667 13.7333 25.7333 14.1 26.1L19.8 31.8C20.1667 32.1667 20.6333 32.35 21.2 32.35C21.7667 32.35 22.2333 32.1667 22.6 31.8L33.95 20.45C34.3167 20.0833 34.5 19.6333 34.5 19.1C34.5 18.5667 34.3 18.1 33.9 17.7C33.5333 17.3333 33.0667 17.15 32.5 17.15C31.9333 17.15 31.4667 17.3333 31.1 17.7L21.2 27.6ZM24 44C21.2333 44 18.6333 43.4747 16.2 42.424C13.7667 41.3747 11.65 39.95 9.85 38.15C8.05 36.35 6.62533 34.2333 5.576 31.8C4.52533 29.3667 4 26.7667 4 24C4 21.2333 4.52533 18.6333 5.576 16.2C6.62533 13.7667 8.05 11.65 9.85 9.85C11.65 8.05 13.7667 6.62467 16.2 5.574C18.6333 4.52467 21.2333 4 24 4C26.7667 4 29.3667 4.52467 31.8 5.574C34.2333 6.62467 36.35 8.05 38.15 9.85C39.95 11.65 41.3747 13.7667 42.424 16.2C43.4747 18.6333 44 21.2333 44 24C44 26.7667 43.4747 29.3667 42.424 31.8C41.3747 34.2333 39.95 36.35 38.15 38.15C36.35 39.95 34.2333 41.3747 31.8 42.424C29.3667 43.4747 26.7667 44 24 44Z" fill="white"/>
</svg>
