<svg width="140" height="126" viewBox="0 0 140 126" fill="none" xmlns="http://www.w3.org/2000/svg">
<path d="M53.7334 94.7524L55.912 96.5941L64.1375 88.7926L60.9221 86.0746L53.7334 94.7524Z" fill="#FFB6B6"/>
<path d="M60.1788 94.1306L55.565 90.9135L67.713 71.4576C58.9083 66.288 52.8534 59.9815 47.9128 53.0542C46.2338 50.7164 45.2103 47.9957 47.5526 46.2419C47.6621 46.1599 47.7745 46.0822 47.8898 46.0089C50.5608 44.3276 49.6938 46.8473 53.355 45.6098L56.6631 49.1746L63.8104 56.1998L76.0016 64.0612C78.4533 65.6421 79.1336 68.9675 77.5211 71.4886C77.4359 71.6217 77.3452 71.751 77.249 71.8765L60.1788 94.1306Z" fill="#2F2E41"/>
<path d="M54.0119 93.2525L57.8319 96.1089L56.5274 97.6835L57.9871 103.021C58.0593 103.284 58.0461 103.564 57.9495 103.82C57.853 104.075 57.6781 104.293 57.4504 104.441C57.2228 104.589 56.9542 104.66 56.684 104.643C56.4138 104.626 56.1561 104.522 55.9485 104.346L51.617 100.684L52.1608 98.4956L50.5789 99.8067L48.9458 98.4261L54.0119 93.2525Z" fill="#2F2E41"/>
<path d="M48.6794 73.8134L25.1177 82.3248L25.8005 84.2535L49.3622 75.7421L48.6794 73.8134Z" fill="#3F3D56"/>
<path d="M54.1913 106.739L48.052 101.384C47.6248 101.011 47.3618 100.482 47.3206 99.9133C47.2795 99.3446 47.4636 98.7825 47.8326 98.3509C48.2015 97.9192 48.7251 97.6533 49.2881 97.6115C49.8511 97.5697 50.4075 97.7555 50.835 98.1281L56.9742 103.483C57.186 103.667 57.3597 103.892 57.4854 104.145C57.6111 104.397 57.6863 104.672 57.7068 104.954C57.7273 105.235 57.6926 105.519 57.6048 105.787C57.517 106.055 57.3777 106.303 57.1949 106.517C57.0121 106.731 56.7894 106.906 56.5396 107.033C56.2897 107.16 56.0175 107.236 55.7386 107.256C55.4596 107.277 55.1794 107.242 54.9139 107.153C54.6484 107.064 54.4029 106.923 54.1913 106.739Z" fill="#3F3D56"/>
<path d="M89.0629 44.8732C88.675 45.0084 88.2624 45.056 87.8542 45.0127C87.446 44.9694 87.0522 44.8362 86.7005 44.6225C86.3488 44.4088 86.0478 44.1198 85.8186 43.7759C85.5895 43.432 85.4377 43.0414 85.3741 42.6319L63.4429 36.9272L67.0195 33.1362L87.9078 39.332C88.596 39.2697 89.2829 39.4645 89.8384 39.8796C90.394 40.2948 90.7794 40.9013 90.9218 41.5843C91.0642 42.2673 90.9536 42.9794 90.611 43.5856C90.2684 44.1917 89.7176 44.6499 89.0629 44.8732Z" fill="#FFB6B6"/>
<path d="M55.747 18.3862C55.747 18.3862 52.1809 18.8036 52.245 22.9547C52.3091 27.1059 61.0506 36.5623 62.4144 38.129C63.7781 39.6958 77.3883 40.4963 77.3883 40.4963L81.6399 36.7199L69.0335 32.4294L55.747 18.3862Z" fill="#6532AD"/>
<path d="M48.5152 37.8702L47.7107 41.6819C47.7107 41.6819 46.2466 44.8542 46.5307 45.7017C46.8122 46.5447 59.4847 51.1269 59.4847 51.1269C59.4847 51.1269 60.5704 45.4112 62.3822 41.5558L48.5152 37.8702Z" fill="#FFB6B6"/>
<path d="M89.1284 97.487L81.8097 101.019C81.3002 101.265 80.7148 101.296 80.1824 101.106C79.65 100.916 79.2141 100.52 78.9707 100.006C78.7273 99.4909 78.6962 98.8996 78.8844 98.3617C79.0725 97.8239 79.4645 97.3836 79.974 97.1377L87.2927 93.6056C87.8023 93.3597 88.3876 93.3283 88.92 93.5184C89.4525 93.7084 89.8883 94.1044 90.1317 94.6191C90.3752 95.1338 90.4062 95.7251 90.2181 96.2629C90.0299 96.8008 89.638 97.2411 89.1284 97.487Z" fill="#3F3D56"/>
<path d="M116.887 125.684C112.316 125.684 107.848 124.314 104.047 121.749C100.246 119.183 97.2836 115.537 95.5343 111.271C93.7849 107.005 93.3272 102.31 94.219 97.7812C95.1108 93.2523 97.3121 89.0921 100.544 85.8269C103.777 82.5617 107.895 80.3381 112.378 79.4372C116.862 78.5364 121.509 78.9987 125.732 80.7658C129.955 82.5329 133.565 85.5255 136.105 89.3649C138.644 93.2044 140 97.7184 140 102.336C139.993 108.526 137.556 114.461 133.223 118.838C128.89 123.215 123.015 125.677 116.887 125.684ZM116.887 81.1504C112.739 81.1504 108.685 82.3929 105.236 84.7208C101.787 87.0488 99.0988 90.3575 97.5114 94.2287C95.924 98.0999 95.5087 102.36 96.3179 106.469C97.1272 110.579 99.1246 114.354 102.058 117.317C104.991 120.28 108.728 122.297 112.796 123.115C116.864 123.932 121.081 123.513 124.913 121.909C128.745 120.306 132.021 117.59 134.325 114.106C136.63 110.622 137.86 106.526 137.86 102.336C137.854 96.7193 135.642 91.3343 131.71 87.3626C127.779 83.3909 122.448 81.1568 116.887 81.1504Z" fill="#3F3D56"/>
<path d="M117.908 107.248C119.7 107.248 121.152 105.78 121.152 103.97C121.152 102.16 119.7 100.693 117.908 100.693C116.116 100.693 114.664 102.16 114.664 103.97C114.664 105.78 116.116 107.248 117.908 107.248Z" fill="#3F3D56"/>
<path d="M21.9 126.001C17.5686 126.001 13.3344 124.704 9.733 122.273C6.13157 119.842 3.3246 116.387 1.66704 112.344C0.00948779 108.302 -0.424203 103.854 0.420812 99.5626C1.26583 95.2712 3.3516 91.3293 6.41436 88.2354C9.47713 85.1415 13.3793 83.0345 17.6275 82.1809C21.8757 81.3273 26.279 81.7654 30.2807 83.4398C34.2824 85.1142 37.7027 87.9497 40.1091 91.5878C42.5155 95.2258 43.7999 99.503 43.7999 103.878C43.7934 109.744 41.484 115.367 37.3783 119.514C33.2727 123.662 27.7062 125.994 21.9 126.001ZM21.9 83.8042C17.9696 83.8042 14.1275 84.9816 10.8596 87.1874C7.59161 89.3931 5.04454 92.5283 3.54046 96.1964C2.03639 99.8645 1.64285 103.901 2.40963 107.795C3.1764 111.689 5.06904 115.266 7.84822 118.073C10.6274 120.881 14.1683 122.792 18.0231 123.567C21.8779 124.342 25.8736 123.944 29.5047 122.425C33.1359 120.905 36.2395 118.332 38.4231 115.031C40.6067 111.73 41.7722 107.849 41.7722 103.878C41.7662 98.5563 39.6706 93.4538 35.9452 89.6905C32.2197 85.9271 27.1686 83.8102 21.9 83.8042Z" fill="#3F3D56"/>
<path d="M21.9017 107.156C23.6935 107.156 25.1461 105.689 25.1461 103.879C25.1461 102.069 23.6935 100.601 21.9017 100.601C20.1098 100.601 18.6572 102.069 18.6572 103.879C18.6572 105.689 20.1098 107.156 21.9017 107.156Z" fill="#3F3D56"/>
<path d="M65.9014 107.268C67.9792 107.268 69.6636 105.567 69.6636 103.468C69.6636 101.369 67.9792 99.6673 65.9014 99.6673C63.8236 99.6673 62.1392 101.369 62.1392 103.468C62.1392 105.567 63.8236 107.268 65.9014 107.268Z" fill="#3F3D56"/>
<path d="M22.7343 103.647L21.2549 102.246L47.6636 73.787L94.7915 59.539L118.181 101.005L116.419 102.02L93.8281 61.9686L48.7691 75.591L22.7343 103.647Z" fill="#3F3D56"/>
<path d="M62.7058 102.353H42.7783V104.401H62.7058V102.353Z" fill="#3F3D56"/>
<path d="M49.2304 63.9775H47.2026V74.6872H49.2304V63.9775Z" fill="#3F3D56"/>
<path d="M88.6586 39.7456L86.729 40.375L93.3442 61.0681L95.2738 60.4386L88.6586 39.7456Z" fill="#3F3D56"/>
<path d="M49.0257 73.3401L47.2759 74.3754L63.9036 103.053L65.6534 102.018L49.0257 73.3401Z" fill="#3F3D56"/>
<path d="M103.749 77.5185L68.062 102.102L69.2044 103.794L104.892 79.2108L103.749 77.5185Z" fill="#3F3D56"/>
<path d="M52.106 65.2542H43.9949C43.4302 65.2542 42.8886 65.0276 42.4893 64.6242C42.09 64.2208 41.8657 63.6738 41.8657 63.1033C41.8657 62.5329 42.09 61.9858 42.4893 61.5825C42.8886 61.1791 43.4302 60.9525 43.9949 60.9525H52.106C52.6707 60.9525 53.2122 61.1791 53.6115 61.5825C54.0108 61.9858 54.2351 62.5329 54.2351 63.1033C54.2351 63.6738 54.0108 64.2208 53.6115 64.6242C53.2122 65.0276 52.6707 65.2542 52.106 65.2542Z" fill="#6532AD"/>
<path d="M91.6494 42.107H83.5383C82.9737 42.107 82.4321 41.8804 82.0328 41.477C81.6335 41.0737 81.4092 40.5266 81.4092 39.9562C81.4092 39.3858 81.6335 38.8387 82.0328 38.4353C82.4321 38.032 82.9737 37.8054 83.5383 37.8054H91.6494C92.2141 37.8054 92.7557 38.032 93.155 38.4353C93.5543 38.8387 93.7786 39.3858 93.7786 39.9562C93.7786 40.5266 93.5543 41.0737 93.155 41.477C92.7557 41.8804 92.2141 42.107 91.6494 42.107Z" fill="#6532AD"/>
<path d="M61.554 15.3371C64.8185 14.7764 67.0149 11.6486 66.4599 8.35097C65.9049 5.0533 62.8086 2.8345 59.5442 3.39514C56.2797 3.95579 54.0832 7.08357 54.6382 10.3812C55.1932 13.6789 58.2895 15.8977 61.554 15.3371Z" fill="#FFB6B6"/>
<path d="M97.6631 67.3081L90.8916 52.8689L90.9833 52.8251C91.4525 52.6005 91.961 52.4715 92.4796 52.4454C92.9982 52.4193 93.5169 52.4967 94.0059 52.6731C94.4949 52.8495 94.9447 53.1215 95.3297 53.4735C95.7146 53.8255 96.0272 54.2507 96.2495 54.7248L99.6352 61.9444C99.8575 62.4185 99.9853 62.9321 100.011 63.456C100.037 63.9799 99.9603 64.5038 99.7857 64.9978C99.6111 65.4918 99.3418 65.9462 98.9933 66.335C98.6448 66.7239 98.2239 67.0396 97.7546 67.2642L97.6631 67.3081Z" fill="#3F3D56"/>
<path d="M76.9632 69.8468C76.1107 69.8445 75.2817 69.5644 74.5994 69.0481C73.9171 68.5317 73.4179 67.8068 73.1762 66.981L73.1475 66.8827L88.3176 62.3612L88.3463 62.4594C88.4932 62.9625 88.5407 63.4899 88.4858 64.0115C88.431 64.5332 88.275 65.0388 88.0268 65.4995C87.7785 65.9602 87.4428 66.367 87.0389 66.6967C86.635 67.0263 86.1708 67.2724 85.6727 67.4208L78.0877 69.6816C77.7226 69.7908 77.3439 69.8465 76.9632 69.8468Z" fill="#3F3D56"/>
<path d="M78.9112 94.7301L81.6716 94.0423L80.3955 82.7153L76.3213 83.7309L78.9112 94.7301Z" fill="#FFB6B6"/>
<path d="M77.6055 91.4814L81.9134 89.4538L82.6606 91.3633L88.0003 92.6149C88.264 92.6767 88.5013 92.8221 88.6775 93.0297C88.8537 93.2374 88.9595 93.4965 88.9796 93.7692C88.9997 94.042 88.9329 94.314 88.7891 94.5457C88.6452 94.7774 88.4318 94.9566 88.1801 95.0571L82.9273 97.1544L81.2829 95.627L81.6684 97.657L79.688 98.4477L77.6055 91.4814Z" fill="#2F2E41"/>
<path d="M81.8265 84.5234L75.9406 88.0891L69.6631 65.6936C59.4795 65.6059 50.0636 64.4541 42.3757 60.9066C39.7711 59.7153 38.6125 56.5645 39.7879 53.8692C39.8428 53.7432 39.9024 53.6195 39.9667 53.4981C41.4632 50.7015 44.3644 49.0591 46.9388 46.1527L59.7089 50.9155L58.7938 54.3893L73.239 55.1217C76.144 55.269 78.3649 57.818 78.1997 60.8149C78.1909 60.9731 78.1755 61.1308 78.1534 61.2879L81.8265 84.5234Z" fill="#2F2E41"/>
<path d="M56.859 15.2783L60.7833 17.3511C61.0001 17.4385 61.1845 17.5921 61.3108 17.7904C61.4372 17.9887 61.4991 18.2219 61.488 18.4574L62.5102 22.5894L66.1069 30.2798C66.1069 30.2798 67.0441 34.3727 65.2556 38.2371C63.4671 42.1016 59.509 51.735 59.509 51.735C56.9273 57.9814 35.7368 53.1577 41.259 47.8431C41.9161 47.2107 45.6091 41.8693 46.9604 41.5623L50.2759 22.3963C50.4431 21.3844 50.8298 20.4224 51.4083 19.5793C51.9869 18.7362 52.743 18.0329 53.6224 17.5197C54.1536 17.2164 54.646 17.0368 54.9835 17.1285C55.7527 17.3095 56.1162 15.5498 56.859 15.2783Z" fill="#6532AD"/>
<path d="M90.9403 40.6743C90.5835 40.8791 90.1865 41.0024 89.7774 41.0354C89.3683 41.0685 88.957 41.0105 88.5725 40.8656C88.1879 40.7207 87.8395 40.4924 87.5518 40.1968C87.264 39.9012 87.044 39.5454 86.9071 39.1546L64.312 37.611L67.1395 33.2216L88.7984 35.4412C89.4637 35.2524 90.1743 35.3166 90.7958 35.6217C91.4173 35.9269 91.9064 36.4517 92.1704 37.0967C92.4344 37.7418 92.455 38.4622 92.2283 39.1216C92.0016 39.781 91.5433 40.3334 90.9403 40.6743Z" fill="#FFB6B6"/>
<path d="M53.3788 20.8095C53.3788 20.8095 49.949 21.8806 50.7659 25.9494C51.5828 30.0182 61.8933 37.6941 63.5185 38.9816C65.1436 40.269 78.6682 38.5337 78.6682 38.5337L82.1618 34.0335L68.9902 32.152L53.3788 20.8095Z" fill="#6532AD"/>
<path d="M66.9461 7.36265C66.0408 7.81317 65.0156 7.1602 64.2234 6.51084L64.5069 6.75305C63.1325 8.13187 62.5035 10.1016 62.206 12.0372C61.9082 13.9709 61.8929 15.9453 61.5127 17.8661C61.1322 19.7848 60.322 21.7171 58.784 22.9058C56.7236 24.498 53.8588 24.427 51.3057 23.972C51.2717 23.9654 51.24 23.9604 51.206 23.9538C51.8713 21.9469 52.1284 19.825 51.962 17.7153C51.3005 19.8381 50.1573 21.7754 48.6235 23.373C46.9293 22.9209 45.2741 22.331 43.674 21.6091C42.6388 21.1408 41.5226 20.4972 41.2253 19.3909C40.9274 18.2931 41.5814 17.1315 42.4646 16.4271C43.3477 15.7227 44.4366 15.3487 45.4457 14.843C46.4532 14.3396 47.448 13.6264 47.8426 12.5613C48.7528 10.1111 46.0606 7.33838 47.0743 4.9286C47.5742 3.74359 48.8215 3.08888 49.995 2.58191C51.7865 1.81 53.6276 1.1613 55.5056 0.640253C57.1543 0.182564 58.877 -0.177699 60.564 0.09357C62.2511 0.364837 63.9115 1.38243 64.5341 2.99176C65.549 3.32653 66.6266 3.70453 67.2844 4.55772C67.9419 5.40888 67.9046 6.88636 66.9461 7.36265Z" fill="#2F2E41"/>
<path d="M99.3849 62.174C100.593 61.7229 101.021 59.8518 100.342 57.9949C99.6622 56.1379 98.1321 54.9983 96.9241 55.4494C95.7161 55.9005 95.2877 57.7715 95.9672 59.6285C96.6468 61.4854 98.1769 62.6251 99.3849 62.174Z" fill="#6532AD"/>
</svg>
