<svg width="201" height="212" viewBox="0 0 201 212" fill="none" xmlns="http://www.w3.org/2000/svg">
<path d="M198.566 170.77C201.664 175.178 201.129 181.21 197.151 184.844C185.438 195.533 175.734 202.138 161.551 209.741C156.778 212.299 150.864 210.808 147.75 206.377C144.29 201.454 145.476 194.658 150.399 191.199L183.263 168.099C188.226 164.611 195.077 165.807 198.566 170.77Z" fill="#4069F9"/>
<path fill-rule="evenodd" clip-rule="evenodd" d="M114.51 144.107C142.716 133.706 162.829 106.586 162.829 74.7679C162.829 33.9648 129.751 0.887329 88.9484 0.887329C48.1453 0.887329 15.0678 33.9648 15.0678 74.7679C15.0678 103.642 31.6318 128.648 55.776 140.801L27.9401 168.631L19.9262 161.221C15.1371 156.792 7.66459 157.084 3.23599 161.873C-0.643958 166.07 -0.991016 172.468 2.60146 176.912C13.7818 190.744 23.2221 199.258 37.4055 209.042C42.121 212.294 48.4981 211.473 52.3875 207.267C53.2682 206.315 53.9615 205.256 54.4693 204.136L114.51 144.107Z" fill="#50BDFA"/>
<path d="M195.957 168.314L157.025 111.677C151.946 122.335 137.72 137.578 122.548 145.334L170.175 191.961L195.957 168.314Z" fill="#4069F9"/>
<path d="M35.3457 93.8812C33.8462 94.6008 33.2043 96.4064 34.0339 97.8479C35.6724 100.695 37.6465 103.317 39.8924 105.621C42.823 108.629 46.1593 111.038 49.7108 112.712C53.2624 114.386 56.9595 115.292 60.5913 115.377C64.2231 115.463 67.7183 114.726 70.8773 113.21C74.0364 111.694 76.7976 109.428 79.003 106.542C81.2086 103.655 82.8153 100.204 83.7314 96.3862C84.6473 92.5684 84.855 88.4582 84.3423 84.2903C83.9492 81.0962 83.1392 77.9163 81.9433 74.8568C81.3378 73.3077 79.5274 72.6788 78.028 73.3984C76.5285 74.118 75.9114 75.9131 76.4829 77.4751C77.2775 79.6474 77.8226 81.8909 78.0997 84.1436C78.4967 87.3705 78.336 90.553 77.6267 93.509C76.9175 96.465 75.6735 99.1369 73.9657 101.372C72.258 103.607 70.1203 105.362 67.6742 106.535C65.2282 107.709 62.5219 108.279 59.71 108.213C56.8979 108.147 54.0353 107.446 51.2855 106.15C48.5356 104.854 45.9525 102.988 43.6833 100.66C42.0993 99.0341 40.69 97.2052 39.4927 95.2263C38.6317 93.8032 36.8453 93.1616 35.3457 93.8812Z" fill="white"/>
<path d="M29.8435 76.4097C33.4705 76.4097 36.4107 73.4695 36.4107 69.8426C36.4107 66.2156 33.4705 63.2754 29.8435 63.2754C26.2166 63.2754 23.2764 66.2156 23.2764 69.8426C23.2764 73.4695 26.2166 76.4097 29.8435 76.4097Z" fill="white"/>
<path d="M65.7761 66.559C69.4031 66.559 72.3433 63.6188 72.3433 59.9918C72.3433 56.3649 69.4031 53.4247 65.7761 53.4247C62.1492 53.4247 59.209 56.3649 59.209 59.9918C59.209 63.6188 62.1492 66.559 65.7761 66.559Z" fill="white"/>
<path fill-rule="evenodd" clip-rule="evenodd" d="M53.719 67.8419L46.0205 70.4576L50.8216 84.5887C47.8046 86.9163 46.2957 90.2233 47.2816 93.1255C48.6467 97.1435 54.2772 98.8636 59.8579 96.9676C65.4383 95.0717 68.8555 90.2773 67.4904 86.2594C66.4142 83.0919 62.6868 81.3522 58.4231 81.687L53.719 67.8419Z" fill="#FBCD27"/>
</svg>
