<svg width="165" height="173" viewBox="0 0 165 173" fill="none" xmlns="http://www.w3.org/2000/svg">
<path fill-rule="evenodd" clip-rule="evenodd" d="M93.9627 118.067C117.04 109.557 133.497 87.3678 133.497 61.3351C133.497 27.9507 106.433 0.887329 73.0488 0.887329C39.6645 0.887329 12.6011 27.9507 12.6011 61.3351C12.6011 84.9594 26.1535 105.418 45.9078 115.362L23.133 138.132L16.5761 132.069C12.6578 128.446 6.54394 128.685 2.92054 132.603C-0.25397 136.036 -0.537926 141.271 2.40137 144.907C11.5489 156.225 19.2728 163.191 30.8774 171.196C34.7356 173.857 39.9532 173.185 43.1354 169.743C43.8559 168.964 44.4232 168.098 44.8387 167.182L93.9627 118.067Z" fill="#FA50B6"/>
<path d="M162.736 139.882C165.271 143.489 164.833 148.424 161.578 151.397C151.995 160.143 144.055 165.547 132.451 171.768C128.546 173.861 123.707 172.641 121.159 169.015C118.328 164.987 119.298 159.427 123.326 156.597L150.215 137.697C154.276 134.843 159.881 135.822 162.736 139.882Z" fill="#F94078"/>
<path d="M160.601 137.873L128.748 91.5334C124.592 100.254 112.953 112.725 100.539 119.071L139.506 157.22L160.601 137.873Z" fill="#F94078"/>
<path d="M29.192 76.9732C27.9652 77.562 27.44 79.0393 28.1187 80.2187C29.4593 82.5481 31.0745 84.6931 32.9121 86.5789C35.3098 89.0395 38.0395 91.0109 40.9453 92.3804C43.8511 93.75 46.8761 94.4909 49.8475 94.5608C52.819 94.6307 55.6787 94.0282 58.2633 92.7878C60.8481 91.5474 63.1072 89.6934 64.9117 87.3317C66.7162 84.9698 68.0308 82.1465 68.7803 79.0228C69.5297 75.8991 69.6996 72.5362 69.2801 69.1262C68.9586 66.5128 68.2958 63.911 67.3173 61.4078C66.8219 60.1404 65.3407 59.6258 64.1139 60.2145C62.8871 60.8033 62.3821 62.2721 62.8497 63.5501C63.4999 65.3274 63.9458 67.163 64.1726 69.0061C64.4974 71.6463 64.3659 74.2501 63.7856 76.6687C63.2053 79.0873 62.1875 81.2733 60.7902 83.1021C59.393 84.9308 57.6439 86.3663 55.6426 87.3267C53.6414 88.287 51.4271 88.7536 49.1265 88.6994C46.8257 88.6453 44.4835 88.0717 42.2337 87.0113C39.9838 85.9509 37.8703 84.4244 36.0137 82.5192C34.7177 81.1893 33.5647 79.6928 32.585 78.0738C31.8806 76.9094 30.4189 76.3845 29.192 76.9732Z" fill="white"/>
<path d="M54.0643 52.6976C57.7879 51.0743 59.3145 46.3359 57.474 42.1139C55.6336 37.892 51.123 35.7853 47.3994 37.4085C43.6758 39.0317 42.1492 43.7701 43.9897 47.9921C45.8301 52.214 50.3407 54.3208 54.0643 52.6976Z" fill="black"/>
<path d="M48.6004 45.0724C49.8416 44.5313 50.4002 43.0659 49.848 41.7993C49.2959 40.5327 47.8421 39.9446 46.6009 40.4856C45.3597 41.0267 44.8011 42.4921 45.3532 43.7587C45.9054 45.0253 47.3592 45.6134 48.6004 45.0724Z" fill="white"/>
<path d="M54.5291 48.8559C55.7703 48.3149 56.3289 46.8495 55.7768 45.5829C55.2246 44.3163 53.7708 43.7281 52.5296 44.2692C51.2884 44.8103 50.7298 46.2757 51.282 47.5423C51.8341 48.8089 53.2879 49.397 54.5291 48.8559Z" fill="white"/>
<path d="M27.4441 65.8086C31.0318 64.2446 32.3381 59.3015 30.3618 54.7678C28.3855 50.2341 23.8749 47.8267 20.2872 49.3907C16.6994 50.9547 15.3931 55.8978 17.3695 60.4315C19.3458 64.9651 23.8564 67.3726 27.4441 65.8086Z" fill="black"/>
<path d="M21.7754 57.534C22.9713 57.0127 23.4601 55.4875 22.8672 54.1274C22.2743 52.7673 20.8242 52.0873 19.6283 52.6087C18.4324 53.13 17.9435 54.6552 18.5364 56.0153C19.1293 57.3754 20.5794 58.0554 21.7754 57.534Z" fill="white"/>
<path d="M27.7451 61.77C28.941 61.2487 29.4298 59.7235 28.8369 58.3634C28.244 57.0033 26.7939 56.3233 25.598 56.8446C24.4021 57.366 23.9133 58.8911 24.5062 60.2513C25.0991 61.6114 26.5492 62.2913 27.7451 61.77Z" fill="white"/>
</svg>
