<svg width="284" height="298" viewBox="0 0 284 298" fill="none" xmlns="http://www.w3.org/2000/svg">
<path fill-rule="evenodd" clip-rule="evenodd" d="M162.054 202.87C202.007 188.136 230.498 149.721 230.498 104.651C230.498 46.854 183.644 0 125.847 0C68.0493 0 21.1953 46.854 21.1953 104.651C21.1953 145.551 44.6581 180.971 78.8581 198.186L39.4288 237.607L28.0772 227.11C21.2935 220.837 10.7088 221.251 4.43574 228.035C-1.06017 233.979 -1.55178 243.042 3.53693 249.337C19.3737 268.93 32.7458 280.991 52.8365 294.849C59.5161 299.456 68.5491 298.293 74.0584 292.335C75.3058 290.986 76.2879 289.486 77.0072 287.9L162.054 202.87Z" fill="#9650FA"/>
<path d="M281.119 240.637C285.507 246.881 284.749 255.428 279.112 260.572C262.524 275.716 248.777 285.072 228.687 295.839C221.926 299.465 213.55 297.351 209.138 291.074C204.237 284.102 205.917 274.477 212.89 269.574L259.442 236.856C266.473 231.914 276.177 233.607 281.119 240.637Z" fill="#8340F9"/>
<path d="M277.423 237.158L222.276 156.931C215.082 172.028 194.931 193.619 173.439 204.605L240.9 270.651L277.423 237.158Z" fill="#8340F9"/>
<path d="M49.9195 131.724C47.7956 132.743 46.886 135.301 48.0614 137.343C50.3823 141.375 53.1783 145.089 56.3597 148.354C60.5109 152.614 65.2367 156.027 70.2674 158.398C75.2983 160.769 80.5353 162.051 85.6797 162.173C90.8239 162.293 95.7749 161.25 100.25 159.103C104.725 156.956 108.636 153.746 111.76 149.657C114.884 145.568 117.16 140.68 118.457 135.272C119.755 129.864 120.049 124.042 119.323 118.138C118.766 113.614 117.619 109.11 115.924 104.776C115.067 102.582 112.503 101.691 110.378 102.71C108.254 103.729 107.38 106.272 108.19 108.485C109.316 111.562 110.088 114.74 110.48 117.93C111.043 122.501 110.815 127.009 109.81 131.196C108.805 135.384 107.043 139.168 104.624 142.334C102.206 145.5 99.1772 147.986 95.7125 149.648C92.2479 151.311 88.4144 152.119 84.4311 152.025C80.4481 151.931 76.3932 150.938 72.4981 149.102C68.6028 147.266 64.9437 144.624 61.7295 141.325C59.486 139.023 57.4897 136.432 55.7937 133.629C54.5742 131.613 52.0435 130.704 49.9195 131.724Z" fill="white"/>
<path d="M42.1236 106.977C47.2611 106.977 51.4259 102.812 51.4259 97.6744C51.4259 92.5369 47.2611 88.3721 42.1236 88.3721C36.9861 88.3721 32.8213 92.5369 32.8213 97.6744C32.8213 102.812 36.9861 106.977 42.1236 106.977Z" fill="white"/>
<path d="M96.0023 62.0059L83.9821 84.2761C83.0456 86.011 84.5577 88.0512 86.49 87.6598L108.216 83.2605" stroke="white" stroke-width="5" stroke-linecap="round"/>
</svg>
