<svg width="48" height="48" viewBox="0 0 48 48" fill="none" xmlns="http://www.w3.org/2000/svg">
<path fill-rule="evenodd" clip-rule="evenodd" d="M24 4C12.9538 4 4 12.9538 4 24C4 35.0462 12.9538 44 24 44C35.0462 44 44 35.0462 44 24C44 12.9538 35.0462 4 24 4ZM25.5385 11.6923C25.5385 11.2843 25.3764 10.893 25.0879 10.6045C24.7993 10.3159 24.408 10.1538 24 10.1538C23.592 10.1538 23.2007 10.3159 22.9121 10.6045C22.6236 10.893 22.4615 11.2843 22.4615 11.6923V24C22.4615 24.8492 23.1508 25.5385 24 25.5385H33.2308C33.6388 25.5385 34.0301 25.3764 34.3186 25.0879C34.6071 24.7993 34.7692 24.408 34.7692 24C34.7692 23.592 34.6071 23.2007 34.3186 22.9121C34.0301 22.6236 33.6388 22.4615 33.2308 22.4615H25.5385V11.6923Z" fill="white"/>
</svg>
