<svg width="48" height="48" viewBox="0 0 48 48" fill="none" xmlns="http://www.w3.org/2000/svg">
<path d="M39.1786 5C39.6187 5.00002 40.044 5.14171 40.3757 5.39887C40.7074 5.65603 40.9231 6.01126 40.983 6.39888L41 6.61907V41.1592C40.9999 41.5694 40.8245 41.9643 40.5095 42.264C40.1944 42.5638 39.7631 42.7461 39.3027 42.774C38.8423 42.802 38.3871 42.6735 38.0291 42.4147C37.6711 42.1558 37.437 41.7858 37.3741 41.3794L37.3571 41.1592V30.3654H31.8929C31.4527 30.3654 31.0275 30.2237 30.6957 29.9665C30.364 29.7094 30.1483 29.3542 30.0884 28.9665L30.0714 28.7463V13.0953C30.0714 10.9483 31.0309 8.88924 32.7388 7.37107C34.4468 5.8529 36.7632 5 39.1786 5ZM24.6071 5C25.0473 5.00002 25.4725 5.14171 25.8043 5.39887C26.136 5.65603 26.3517 6.01126 26.4116 6.39888L26.4286 6.61907V15.2541C26.4286 19.4702 23.0286 22.9781 18.5357 23.738V41.1592C18.5356 41.5694 18.3603 41.9643 18.0452 42.264C17.7302 42.5638 17.2988 42.7461 16.8384 42.774C16.378 42.802 15.9228 42.6735 15.5648 42.4147C15.2069 42.1558 14.9728 41.7858 14.9099 41.3794L14.8929 41.1592V23.738C12.7576 23.3751 10.8208 22.3864 9.3922 20.9298C7.96357 19.4732 7.12557 17.6329 7.01214 15.7031L7 15.2541V6.61907C7.00014 6.20885 7.17545 5.81398 7.4905 5.51423C7.80556 5.21449 8.23687 5.03222 8.69728 5.00426C9.15769 4.9763 9.61288 5.10473 9.97087 5.36361C10.3289 5.62248 10.563 5.99249 10.6259 6.39888L10.6429 6.61907V15.2541C10.6429 17.6719 12.4303 19.7163 14.8929 20.4049V6.61907C14.893 6.20885 15.0683 5.81398 15.3834 5.51423C15.6984 5.21449 16.1297 5.03222 16.5901 5.00426C17.0505 4.9763 17.5057 5.10473 17.8637 5.36361C18.2217 5.62248 18.4558 5.99249 18.5187 6.39888L18.5357 6.61907V20.4027C19.6946 20.0781 20.7174 19.452 21.472 18.6054C22.2265 17.7588 22.6782 16.7306 22.7687 15.6535L22.7857 15.2541V6.61907C22.7857 6.18967 22.9776 5.77785 23.3192 5.47421C23.6608 5.17058 24.1241 5 24.6071 5ZM37.3571 27.1273V8.51446C36.3588 8.82853 35.4845 9.39351 34.8404 10.1408C34.1963 10.888 33.8102 11.7854 33.7289 12.724L33.7143 13.0953V27.1273H37.3571Z" fill="white"/>
</svg>
